<svg xmlns="http://www.w3.org/2000/svg" width="257.655" height="64.899" viewBox="0 0 257.655 64.899">
  <g id="Grupo_138" data-name="Grupo 138" transform="translate(-51.173 -416.873)">
    <path id="Caminho_343" data-name="Caminho 343" d="M583.323,448.228c3.979,1.706,8.042.643,12.051.263,9.7-.918,19.39-2.012,29.088-2.988a201.1,201.1,0,0,1,35.789-.453,108.446,108.446,0,0,1,12.039,1.955c.854.165,1.579,1,2.363,1.528a7.136,7.136,0,0,1-2.594.478c-10.371-2.256-20.885-2.252-31.387-1.831-8.91.357-17.815,1.046-26.7,1.868-6.117.566-12.18,1.7-18.288,2.4a38.413,38.413,0,0,1-7.511.027C586.084,451.293,584.6,449.826,583.323,448.228Z" transform="translate(-391.906 -20.317)" fill="#b49668"/>
    <path id="Caminho_344" data-name="Caminho 344" d="M463.231,556.534c4.646.852,5.083,1.532,12.079-1.033,1.222.527,2.09,1.2,2.983,1.233,3.224.132,6.456.052,9.816.052.246-1.033.464-1.727.571-2.437.654-4.33,1.314-8.66,1.911-13,.464-3.37.652-6.79,1.324-10.114a26.317,26.317,0,0,1,1.8-6.591c.753-1.512,2.909-1.882,4.644-1.769,1.3.085,2.918.7,2.679,2.146-2.956,1.449-5.69,3.693-6.225,6.894-.832,4.972-1.423,9.984-2.117,14.98q-.493,3.551-.985,7.1c-.147.879-.3,1.757-.449,2.634a15.1,15.1,0,0,0-.325,2.9c-4.56-.436-9.313.791-13.878-1.044C472.5,559.548,467.409,561.421,463.231,556.534Z" transform="translate(-303.463 -78.054)" fill="#b69669"/>
    <path id="Caminho_345" data-name="Caminho 345" d="M590.844,557.017c3.791-.138,7.972-.227,11.922-.371.726-5.592,1.4-10.937,2.119-16.276a88.513,88.513,0,0,1,1.479-9.588A21,21,0,0,1,609.2,524.5c1.59-2.428,4.762-1.865,5.924.847a11.631,11.631,0,0,0-1.609.191,3.694,3.694,0,0,0-1.311.654,8.376,8.376,0,0,0-3.026,5.353c-.685,3.394-1.02,6.844-1.457,10.275-.672,5.275-1.433,10.542-2.163,15.808a16.693,16.693,0,0,0-.155,1.8H593.3C592.74,558.781,591.6,557.875,590.844,557.017Z" transform="translate(-397.444 -78.127)" fill="#b69666"/>
    <path id="Caminho_346" data-name="Caminho 346" d="M466.381,440.847c-2-1.678-3.758-3.368-3.682-6.39a5.757,5.757,0,0,1,3.7-5.662,6.054,6.054,0,0,1,6.534.964,30.041,30.041,0,0,1,2.367,2.528c1.384,4.6.219,7.554-3.957,8.855C469.861,441.6,468.044,440.977,466.381,440.847Z" transform="translate(-303.07 -8.38)" fill="#023f6d"/>
    <path id="Caminho_347" data-name="Caminho 347" d="M161.417,442.084l3.309.355H153.045l2.3-16.135c3.943.432,7.478.855,11.02,1.2,4.048.393,8.51-5.147,7.182-9.548l2.7,1.348c.683,4.941-1.047,8.18-5.883,10.958l-12.4-1.222-1.978,13.046Z" transform="translate(-75.024 -0.797)" fill="#b49768"/>
    <path id="Caminho_348" data-name="Caminho 348" d="M972.56,511.057l-2.375-4.748c1.839-2.247,3.492-4.189,5.061-6.2,3.661-4.689,6.954-9.585,7.668-15.7.192-1.647.082-3.329.111-4.995,1.907.916,2.324,2.645,2.525,4.528a18.151,18.151,0,0,1-3.164,11.842,138.109,138.109,0,0,1-9.674,13.034Q972.636,509.939,972.56,511.057Z" transform="translate(-676.813 -46.061)" fill="#b99664"/>
    <path id="Caminho_349" data-name="Caminho 349" d="M492.244,529.282c-1.964-.051-2.587-1.338-2.455-2.984.26-3.229.654-6.449,1.047-9.665q.725-5.927,1.547-11.842c.4-2.865.883-5.719,1.328-8.578l2.509,2.077c-.829,6.351-1.627,12.409-2.407,18.47C493.275,520.931,492.765,525.107,492.244,529.282Z" transform="translate(-323.009 -58.43)" fill="#b4976a"/>
    <path id="Caminho_350" data-name="Caminho 350" d="M869.566,529.1c-1.969-.726-2.552-2.287-2.3-4.17.7-5.243,1.532-10.468,2.235-15.711.584-4.353,1.059-8.72,1.582-13.081l2.653,2.057c-.261,2.569-.457,5.11-.788,7.634-.772,5.89-1.594,11.774-2.428,17.655C870.254,525.366,869.887,527.231,869.566,529.1Z" transform="translate(-600.976 -58.377)" fill="#b69568"/>
    <path id="Caminho_351" data-name="Caminho 351" d="M725.136,522.247c-.446,2.575-.937,5.143-1.324,7.727-.353,2.353-.56,4.728-.9,7.082a25.556,25.556,0,0,1-.732,2.789,3.446,3.446,0,0,1-2.532-3.934c.325-3.389.933-6.751,1.262-10.14.394-4.05.705-8.112.857-12.177.041-1.087-.63-2.2-.974-3.3a10.273,10.273,0,0,1,3.917,8.6A22.9,22.9,0,0,0,725.136,522.247Z" transform="translate(-492.281 -68.798)" fill="#b6986d"/>
    <path id="Caminho_352" data-name="Caminho 352" d="M846.132,623.494c5.2,1.239,10.234.776,14.737-2.157a53.384,53.384,0,0,0,6.547-5.638,11.285,11.285,0,0,0,1.425-2.019l.766.278,1.446,3.488c-2.153,1.91-4.187,3.981-6.486,5.7a17.312,17.312,0,0,1-13.9,3.112C849.043,625.954,847.638,624.448,846.132,623.494Z" transform="translate(-585.453 -144.94)" fill="#b79467"/>
    <path id="Caminho_353" data-name="Caminho 353" d="M761.816,634.211c3.446.806,7,1.37,10.17-.52,2.444-1.456,4.519-3.533,6.841-5.4l2.07,3.266a17.786,17.786,0,0,0-2.28,1.777c-3.4,3.638-7.693,4.583-12.316,3.71C764.685,636.739,763.3,635.191,761.816,634.211Z" transform="translate(-523.358 -155.7)" fill="#b69668"/>
    <path id="Caminho_354" data-name="Caminho 354" d="M958.795,629.744c2.944.97,5.9,1.167,8.661-.434,2.641-1.531,4.159-3.8,3.709-7.033l2.4,1.525c.546,4.245-.775,6.968-4.291,8.341C965.822,633.488,961.266,633.465,958.795,629.744Z" transform="translate(-668.424 -151.271)" fill="#b7986b"/>
    <path id="Caminho_355" data-name="Caminho 355" d="M476.677,452.126c1.662.13,3.48.757,4.958.3,4.176-1.3,5.341-4.254,3.957-8.855,3.853,2.941,4.306,7.246,1.074,10.2a6.143,6.143,0,0,1-7.585.5A24.833,24.833,0,0,1,476.677,452.126Z" transform="translate(-313.365 -19.659)" fill="#b39769"/>
    <path id="Caminho_356" data-name="Caminho 356" d="M693.536,643.148a33.107,33.107,0,0,0,4.356.881c5.211.368,5.253.309,10.2-2.95l3.459,2.56a13.179,13.179,0,0,0-2.649,1.111A11.758,11.758,0,0,1,693.536,643.148Z" transform="translate(-473.073 -165.118)" fill="#b3976e"/>
    <path id="Caminho_357" data-name="Caminho 357" d="M424.909,515.416c.58-.005,1.16-.013,1.739-.016,4.477-.026,6.822-3.6,5.134-7.822-.152-.381-.261-.779-.389-1.17a2.271,2.271,0,0,1,1.3.348,1.509,1.509,0,0,1,.657,1.048c-.323,2.337-.655,4.673-.965,7.012-.278,2.1-.533,4.2-.8,6.3l-.3-2.723a6.949,6.949,0,0,1-4.325-.664A5.107,5.107,0,0,1,424.909,515.416Z" transform="translate(-275.241 -65.939)" fill="#b19469"/>
    <path id="Caminho_358" data-name="Caminho 358" d="M956.157,510.976l-1.078,2.086-.568-.039a109.947,109.947,0,0,1-3.768-15.1c2.027.61,2.362,2.434,2.819,4.091.659,2.393,1.153,4.831,1.777,7.234A9.789,9.789,0,0,0,956.157,510.976Z" transform="translate(-662.494 -59.693)" fill="#a59a77"/>
    <path id="Caminho_359" data-name="Caminho 359" d="M284.349,555.682c3.653.285,7.3.528,10.5-1.352,4.237,2.249,8.5.993,12.879.989l4.345-30.815c1.479-2.014,3.3-3.835,6.516-3.321l.8,2.373c-4.657,1.192-5.143,4.9-5.619,8.854-1.019,8.466-2.28,16.9-3.49,25.7-4.523-.126-8.863.76-12.71-.5-3.084.243-5.78.48-8.48.66A4.741,4.741,0,0,1,284.349,555.682Z" transform="translate(-171.724 -76.754)" fill="#b19469"/>
    <path id="Caminho_360" data-name="Caminho 360" d="M89.519,565.191h11.255l4.536-30.816c3.195-.7,6.4-.315,10.06-.3l-1.084,2.888-6.345-.581c-1.513,10.578-2.964,20.719-4.445,31.068H91.4Z" transform="translate(-28.24 -86.228)" fill="#b29569"/>
    <path id="Caminho_361" data-name="Caminho 361" d="M65.437,466.144l4.84.74c-.3-3.916-.819-7.424-.754-10.921a19.364,19.364,0,0,1,1.517-6.722c1.277-3.157,4.171-4.562,7.826-4.041-.165,1.38-.333,2.784-.5,4.186v-1.468c-3.816.625-6.025,4.969-6.063,8.791-.042,4.207-.663,8.483,1.175,12.659C69.81,470.188,67.538,468.375,65.437,466.144Z" transform="translate(-10.505 -20.784)" fill="#b29a71"/>
    <path id="Caminho_362" data-name="Caminho 362" d="M201.982,633.765c6.434,1.607,11.761.032,15.74-5.457a4.9,4.9,0,0,1,.911-.712l1.735,3.561a52.6,52.6,0,0,1-5.574,4.393c-3.84,2.3-9.737,1.616-12.428-1.162A3.334,3.334,0,0,1,201.982,633.765Z" transform="translate(-111.064 -155.188)" fill="#ad9167"/>
    <path id="Caminho_363" data-name="Caminho 363" d="M794.465,515.817a7.316,7.316,0,0,0-6.386,3.364,28.625,28.625,0,0,0-4.066,10.767c-.656,3.818-1.044,8.123.081,11.885a3.844,3.844,0,0,1-3.152-3.317c-1.02-8.131-.156-16.346,4.927-23.159a5.605,5.605,0,0,1,4.848-2.088C792.373,513.342,794.115,514.006,794.465,515.817Z" transform="translate(-537.165 -70.986)" fill="#b69667"/>
    <path id="Caminho_364" data-name="Caminho 364" d="M234.74,515.768l-2.285.139c-3.166,1.669-4.716,4.574-6.086,7.759-1.676,3.9-1.891,8.026-2.32,12.112a32.6,32.6,0,0,0,.42,5.917c-1.818-.669-2.4-2.25-2.6-3.909-.837-7.017.076-13.765,3.63-19.972,1.279-2.233,2.737-4.42,5.8-4.506C233.13,513.257,234.368,513.867,234.74,515.768Z" transform="translate(-125.501 -71.018)" fill="#b39467"/>
    <path id="Caminho_365" data-name="Caminho 365" d="M310.716,496.224l2.756,2.095c-.172,1.311-.342,2.6-.51,3.894-.523,4.036-.99,8.081-1.584,12.107-.553,3.749-1.287,7.471-1.847,11.219a40.912,40.912,0,0,0-.209,4.247,3.27,3.27,0,0,1-2.411-3.841c.3-2.7.779-5.379,1.157-8.07.4-2.861.776-5.725,1.162-8.588.508-3.773,1.026-7.545,1.51-11.321A11.849,11.849,0,0,0,310.716,496.224Z" transform="translate(-188.315 -58.439)" fill="#b29366"/>
    <path id="Caminho_366" data-name="Caminho 366" d="M595.693,439.786a12.119,12.119,0,0,0,.194-3.662,6.61,6.61,0,0,0-1.146-3.217,20.59,20.59,0,0,0-7.083-5.594,28.335,28.335,0,0,0-6.1-2.034c-2.645-.619-5.189-1.2-7.878-1.561q-2.763-.372-5.511-.841a106.706,106.706,0,0,0-13.811-1.075c-4.809-.193-9.651-.126-14.461.027-5.937.19-11.868.626-17.759,1.391-1.707.221-37.488,4.663-36.755,2.45,1.28-3.865.723-6.114-1.872-6.782-2.224-.577-4.558.256-5.632,3.544a5.876,5.876,0,0,0,0,3.986,7.168,7.168,0,0,0,2.921,2.851c3.594,2.409,8.042.643,12.048.266,9.7-.919,19.391-2.013,29.09-2.992a201.462,201.462,0,0,1,35.786-.452,108.423,108.423,0,0,1,12.043,1.958c.853.161,1.576,1,2.359,1.526,3.885.422,7.188,2.249,10.431,4.257,2.214,1.365,3.067,3.674,4.212,5.793.677,4.89-1.074,9.081-3.725,13.016-.362.7-.718,1.391-1.079,2.088-.191-.015-.376-.025-.567-.04a110.212,110.212,0,0,1-3.77-15.095c-3.946-1.275-7.926-.371-12.083-.537,2.274,8.96,4.448,17.539,6.561,25.872a23.6,23.6,0,0,1-1.988,2.259c-3.494,2.992-6.983,6.034-12.148,4.894-1.968-.723-2.555-2.284-2.3-4.166.7-5.246,1.531-10.471,2.234-15.712.582-4.352,1.059-8.719,1.581-13.082H548.066c-.3.708-.552,1.33-.778,1.872a22.083,22.083,0,0,0-3.333-1.973,13.179,13.179,0,0,0-11.059,1.089c-5.893,3.117-8.74,8.614-10.667,14.7-.447,2.575-.934,5.14-1.325,7.725-.351,2.354-.557,4.729-.9,7.083a27.186,27.186,0,0,1-.733,2.786,3.444,3.444,0,0,1-2.535-3.93c.326-3.388.934-6.752,1.265-10.14.392-4.051.7-8.112.858-12.178.04-1.089-.633-2.2-.974-3.3a9.8,9.8,0,0,0-7.8-4.347c-4.849-.367-8.569,1.938-11.46,5.883a16.883,16.883,0,0,0-1.908-2.44,17.211,17.211,0,0,0-3.956-2.886c-3.373-1.491-6.661-.688-9.814.954a20.663,20.663,0,0,0-3.129,1.733c0-.786-.054-1.868-.054-2.667H467.955c-1.516,10.657-3.027,21.284-4.5,31.645-2.073,1.677-2.073,1.677-4.839,1.486-1.968-.055-2.59-1.34-2.46-2.987.261-3.228.658-6.451,1.049-9.663q.723-5.933,1.546-11.847c.4-2.861.883-5.718,1.33-8.574H447.986c-.181,1.5-.341,2.791-.5,4.081-.326,2.34-.658,4.674-.969,7.013-.276,2.1-.532,4.2-.8,6.3-.447,3.373-.833,6.757-1.355,10.125-.823,5.286.145,9.884,4.779,13.172,4.643.853,5.08,1.531,12.078-1.034,1.22.527,2.088,1.2,2.982,1.235,3.223.131,6.683.05,10.046.05.142-1.065.24-1.7.34-2.435.59-4.342,1.315-8.659,1.913-13,.622-4.518.953-9.11,2.007-13.58a13.058,13.058,0,0,1,.985-2.869,4.374,4.374,0,0,1,4.047-2.067c1.409.015,3.238.285,3.392,2.013a11.512,11.512,0,0,1-.08,2.3c-.387,3.443-.954,6.867-1.446,10.3-.783,5.477-1.788,10.925-2.324,16.43-.108,1.105-.257,2.088-.309,3.061,3.806,0,7.961-.088,11.92-.088.728-5.592,1.4-11.221,2.118-16.557a88.313,88.313,0,0,1,1.481-9.588,20.948,20.948,0,0,1,2.841-6.285c1.586-2.43,4.764-1.867,5.923.843,1.084,5.888-.788,11.516-1.541,17.233-.693,5.266-.587,10.155,4.322,13.579a33,33,0,0,0,4.357.884c5.211.366,5.251.311,10.2-2.952,1.1.818,2.279,1.687,3.449,2.555,3.443.8,6.993,1.36,10.16-.522,2.44-1.456,4.518-3.534,6.837-5.4.547.858,1.31,2.063,2.073,3.268,1.044.9,2.093,1.8,3.137,2.7,5.2,1.24,10.236.773,14.738-2.158a52.994,52.994,0,0,0,6.546-5.637,11.287,11.287,0,0,0,1.425-2.018c.256.09.512.186.768.276.482,1.165.964,2.324,1.446,3.489q2.379,2.982,4.769,5.968c2.941.969,5.9,1.165,8.659-.437,2.64-1.531,4.162-3.8,3.71-7.033h-4.171c-1.862-1.642-2.153-3.915-2.821-6.009-.783-1.571-1.571-3.142-2.374-4.749,1.837-2.244,3.494-4.186,5.06-6.194a44.256,44.256,0,0,0,6.063-9.332,27.838,27.838,0,0,0,1.526-4.893C595.5,440.722,595.605,440.255,595.693,439.786Zm-50.029,14.342c-.467,4.093-1.184,8.153-1.864,12.218A6.678,6.678,0,0,1,536.3,472.2c-2.318-.441-3.133-2.429-3.311-4.567a35.694,35.694,0,0,1,1.146-12.8,27.489,27.489,0,0,1,2.64-6.376c1.077-1.828,2.625-4.051,4.776-4.649,1.318-.367,3.445-.172,4.3,1.035,1.052,1.476.245,4.353.116,6.028Q545.851,452.506,545.664,454.128Z" transform="translate(-289.375 -1.36)" fill="#01406e"/>
    <path id="Caminho_367" data-name="Caminho 367" d="M112.625,478.927l-3.32-2.959-1.735-3.561a4.9,4.9,0,0,0-.911.712c-3.979,5.489-9.306,7.064-15.74,5.457A13.861,13.861,0,0,1,83.97,467.43a37.36,37.36,0,0,1,2.075-16.7l1.084-2.888c-3.657-.01-6.865-.391-10.06.3l-4.536,30.816H61.279a34.651,34.651,0,0,1-.009-4.38c.5-4.2,1.115-8.378,1.729-12.559.529-3.6,1.143-7.185,1.676-10.783.569-3.845,1.086-7.7,1.627-11.545q.779-5.547,1.559-11.093c.168-1.4.336-2.806.5-4.186-3.656-.521-6.549.883-7.826,4.041a19.364,19.364,0,0,0-1.517,6.722c-.066,3.5.452,7.005.754,10.922l-4.841-.74c-2.564-1.687-3.462-4.182-3.7-7.129a20.919,20.919,0,0,1,3.078-12.464c4.77-5.373,10.865-7.695,17.908-8.6a52.875,52.875,0,0,1,13.651.377,38.251,38.251,0,0,0,12.649-.388c1.328,4.4-3.134,9.941-7.182,9.548-3.543-.344-7.077-.767-11.02-1.2l-2.3,16.135H89.7l1.072.882c6.458-6.448,14.933-7.071,19.466-2.823l.742-1.916H122.4a11.852,11.852,0,0,1,.025,1.742c-.484,3.776-1,7.548-1.51,11.321-.386,2.863-.76,5.728-1.162,8.588-.378,2.691-.852,5.371-1.157,8.07a3.27,3.27,0,0,0,2.411,3.841,3.688,3.688,0,0,0,4.18-1.016l4.6-32.421,3.811-.189h7.768l1.527,2.149c.887-.306,1.849-.663,2.828-.969a38.234,38.234,0,0,1,4.215-1.229c4.94-.941,9.514,5.26,6.394,9.526a6.092,6.092,0,0,1-4.9,2.545,6.79,6.79,0,0,1-.971-.062c-1.934-.282-3-2.246-3.394-3.98a9.557,9.557,0,0,1-.2-1.215s0-.06-.006-.06c-3.22-.514-5.037,1.307-6.516,3.321L136,478.564c-4.381,0-8.642,1.261-12.879-.989C119.925,479.456,116.278,479.212,112.625,478.927Zm-13.657-8.25c3.884,1.7,7.355-2.682,7.851-5.842.626-4,1.325-7.982,1.833-11.992.339-2.68.4-5.395.587-8.094-.371-1.9-1.61-2.51-3.434-2.46-3.065.086-4.523,2.273-5.8,4.506-3.555,6.207-4.467,12.956-3.63,19.972C96.571,468.428,97.15,470.009,98.968,470.677Z" transform="translate(0)" fill="#01416e"/>
  </g>
</svg>
