<svg xmlns="http://www.w3.org/2000/svg" width="161" height="141.046" viewBox="0 0 161 141.046">
  <g id="Grupo_73" data-name="Grupo 73" transform="translate(-146.18 -194.99)">
    <path id="União_4" data-name="União 4" d="M-109.821-5558.486c.056-.344.123-.686.2-1.023a30,30,0,0,1,1.617-4.826,31.808,31.808,0,0,0,1.439-3.675c1.646.44,2.76,2.1,3.412,4.269a18.24,18.24,0,0,1,.7,4.232c.018.34.031.681.034,1.023Z" transform="translate(282.675 5841.779)" fill="#fff" stroke="rgba(0,0,0,0)" stroke-miterlimit="10" stroke-width="1"/>
    <g id="Grupo_70" data-name="Grupo 70" transform="translate(149.277 194.99)">
      <path id="Caminho_132" data-name="Caminho 132" d="M206.055,632.09c1.038,1.995,2.15,3.9,3.3,5.693-.045.037-.088.076-.131.117a5.127,5.127,0,0,0-1.32,3.818v1.257c0,.084,0,.166,0,.247-3.283.127-5.9.566-9.959-1.883-.039-.022-.076-.045-.112-.069h3.878v-.613h-4.8a17.954,17.954,0,0,1-5.3-6.406c3.027,0,9.057.36,11.831,1.243,1.384.442,1.682.869,2.962,1.165a23.681,23.681,0,0,0-2.075-4.569Z" transform="translate(-185.428 -542.743)" fill="#fff" fill-rule="evenodd"/>
      <path id="Caminho_133" data-name="Caminho 133" d="M195.732,212.5c1.639-.382,4.029-1.179,6.159-1.028,1.8.127,4.708.683,6.57.683-1.2,4.495-10.034,7.7-15.482,4.818a7.2,7.2,0,0,1,.345-2.065c-1.149.769-3.522,3.865-4.521,5.112-3.309,4.139-9.176,13.918-10.272,18.626a7.29,7.29,0,0,0,.871-.695,12.1,12.1,0,0,0-1.233,5.284,12.434,12.434,0,0,0,.1,1.572c-.368.02-.74.031-1.114.031a3.253,3.253,0,0,0-.343-2.065c-.137,1.66-.844,3.777-1.186,5.695l-.809,9.411c.027.873.282,1.633.278,3.123-.01,7.438,2.4,15.474,5.83,22.61.166.341.331.683.5,1.022h-1.742c-.192-.362-.37-.707-.525-1.022-.061-.125-.119-.243-.172-.358l-2.864-7.111v4.129a34.458,34.458,0,0,1-5.711-1.515,13.785,13.785,0,0,1-8.4-12.246c1.134.264,9.546,3.669,11.226,4.943,1.427,1.083,1.41,1.846,2.191,2.97,0-3.172-.564-4.45-1.169-7.089a26.532,26.532,0,0,1-.9-7.361l-.8,1.613c-.256.628-.329.961-.581,1.484a16.421,16.421,0,0,1-8.058-5.7c-2.488-3.591-2.606-5.053-2.606-10.811,1.071.717,2.015,1.462,3.232,2.273,9.634,6.439,6.441,5.879,8.465,7.361,0-6.9,2.856-16.443,5.507-22.358l3.093-6.2,2.473-3.72c.85-1.245,1.662-2.371,2.586-3.606l4.152-5.137c.826-.85.793-.456,1.11-1.641,1.825-1.222,3.632-3.726,4.9-5.08,2.161-2.308,1.56-.8,1.991-2.823.838-3.929,3.4-5.772,7.432-7.017,1.629-.5,6.2-1.905,7.694-1.938-1.69,3.524-1.545,7.011-7.216,9.983-5.82,3.05-5.043-.329-9.039,3.692A13.942,13.942,0,0,0,195.732,212.5Z" transform="translate(-161.33 -196.327)" fill="#fff" fill-rule="evenodd"/>
      <path id="Caminho_134" data-name="Caminho 134" d="M282.471,671.112a15.982,15.982,0,0,1-.971-1.441,5.751,5.751,0,0,1,.206-1.811,3.2,3.2,0,0,1,.2-.26c.19.276.378.548.568.816Z" transform="translate(-256.936 -570.995)" fill="#fff" fill-rule="evenodd"/>
      <path id="Caminho_135" data-name="Caminho 135" d="M296.468,687.284c-.012-.125-.018-.266-.018-.421V684.98a59.1,59.1,0,0,0,6.564,6.568H300.4A32.118,32.118,0,0,0,296.468,687.284Z" transform="translate(-268.83 -584.822)" fill="#fff" fill-rule="evenodd"/>
      <path id="Caminho_136" data-name="Caminho 136" d="M379.475,699.384c-.36-1.525-.693-3.046-1.045-4.554a9.917,9.917,0,0,1,3.393.969v1.664h2.083v-.435a16.185,16.185,0,0,1,2.637,2.357Z" transform="translate(-334.053 -592.659)" fill="#fff" fill-rule="evenodd"/>
      <path id="Caminho_137" data-name="Caminho 137" d="M663.171,699.384H656.09a16.052,16.052,0,0,1,2.917-2.6,1.4,1.4,0,0,0,.278.323,2.162,2.162,0,0,0,1.459.452,2,2,0,0,0,1.042-.251v-1.357a1.247,1.247,0,0,1-.417.1.712.712,0,0,1-.417-.151.361.361,0,0,1-.108-.176,8.839,8.839,0,0,1,3.51-.9A16.964,16.964,0,0,0,663.171,699.384Z" transform="translate(-554.957 -592.659)" fill="#fff" fill-rule="evenodd"/>
      <path id="Caminho_138" data-name="Caminho 138" d="M747.466,678.086H745.14a51.253,51.253,0,0,0,9.247-10.026,7.116,7.116,0,0,0,.478,1.9l-3.05,3.673a30.781,30.781,0,0,1-2.248,2.569C748.932,676.837,748,677.518,747.466,678.086Z" transform="translate(-625.805 -571.361)" fill="#fff" fill-rule="evenodd"/>
      <path id="Caminho_139" data-name="Caminho 139" d="M365.2,723.15c-1.668,2.49-5.149,4.219-8.743,5.02-5.989,1.337-7.2.123-11.555-.891.36-1.541.685-1.106,1.032-2.408-11.5,6.083-7.649,6.061-22.61,10.758-2.31.726-8.2,1.3-11.2,1.874-2.02.386-3.577,1.347-5.065,1.472.274,1.022,4.912,6,5.785,7.289,1.478,2.181,3.849,5.748,3.849,9.223-2.956-.789-4.129-12.867-12.385-14.793-1.87,1.253-4.536,4.955-5.783,6.946l-3.3,5.989c-.507,1.167-.372,1.224-1.237,1.858-.85-1.607-.724-2.083.83-4.673,1.486-2.473,3.273-6.1,5.268-8.15a25.13,25.13,0,0,0,3.191-3.346c-5.247-2.776-6.549-1.652-11.794-2.653-3.465-.662-9.074-2.8-11.255-2.852.217.19.458.4.744.632,1.228.983,1.286.7,2.007,1.778-2.684,4.008-9.863,5.5-14.548,4.573a23.358,23.358,0,0,1-2.782-.66c-1.145-.364-1.222-.57-2.279-.818.284-1.063.444-.906,1.288-1.466,4.378-2.9,7.753-5.069,13.505-5.069l-1.809-.944a25.471,25.471,0,0,1-5.462-2.794,7.194,7.194,0,0,0-1.674-1.077c-3.818-1.782-3.281-2.6-5.159-3.1.482.912.893,1.494,1.376,2.408-8,4.231-18.983-.5-19.952-4.129a11.713,11.713,0,0,0,1.233-.1c1.392-.174,2.956-.544,4.331-.842H263.7c.343.284.691.566,1.042.842,4.427,3.506,9.266,6.435,13.076,7.322-1.406-2.1-2.573-3.271-3.377-6.255q-.144-.533-.278-1.067c-.074-.28-.143-.562-.211-.842h7.682q.316.411.605.842a14.7,14.7,0,0,1,2.383,6.034c.72,4.932-.979,2.892-3.71,2.666l1.247.818c4.272,2.21,13.806,2.159,20.476,4.64,3.876,1.441.924,1.2,5.49-.262a66.557,66.557,0,0,1,9.4-1.954c2.273-.378,10.484-1.32,11.895-3.242-2.821.233-4.544,2.381-3.71-3.015a14.468,14.468,0,0,1,2.259-5.685q.282-.432.593-.842h7.714c-.061.272-.131.552-.211.842a24.538,24.538,0,0,1-3.551,7.322,41.091,41.091,0,0,0,7.569-3.782c1.889-1.259,3.563-2.4,5.1-3.54.38-.28.752-.562,1.118-.842h14.7c1.282.266,2.5.546,3.771.842Z" transform="translate(-228.279 -614.442)" fill="#fff" fill-rule="evenodd"/>
      <path id="Caminho_140" data-name="Caminho 140" d="M801.109,636.659c3.777-2,10.57-2.715,15.136-3.095a11.934,11.934,0,0,1-6.116,7.5h-2.741v.613h1.523a17.4,17.4,0,0,1-6.76,1.533c-.621.012-1.149.023-1.588.025-.145-.444-.329-.932-.544-1.468a7.6,7.6,0,0,1-.834-2.512c0-.3.07-.5.278-.6a.733.733,0,0,1,.556-.2,1.156,1.156,0,0,1,.765.251v-1.457a3.052,3.052,0,0,0-1.39-.352,2.31,2.31,0,0,0-.384.029,52.909,52.909,0,0,0,2.858-4.834h1.515c-.17.352-.354.726-.554,1.128A27.114,27.114,0,0,0,801.109,636.659Z" transform="translate(-668.663 -542.743)" fill="#fff" fill-rule="evenodd"/>
      <path id="Caminho_141" data-name="Caminho 141" d="M694.435,265.6a33.549,33.549,0,0,0-1.12,6.449c1.008-.738.4-.55,1.3-1.455a7.315,7.315,0,0,1,1.378-1.03,16.593,16.593,0,0,1,3.4-1.762c1.316-.587,2.338-.9,3.71-1.451a27.288,27.288,0,0,1,3.634-1.527,15.644,15.644,0,0,0-.6,3.183,12.627,12.627,0,0,1-3.775,6.545,16.931,16.931,0,0,1-9.728,4.033l-.466-3.217c-1.386,3.234-1.693,4.385-2.827,6.9-.141.317-.3.654-.47,1.022h-1.486q.255-.509.491-1.022c3.436-7.385,4.83-15.022,5.468-23.617.08-1.085.3-1.241.323-2.428a1.9,1.9,0,0,0-.366.664l-.489,1.921a23.386,23.386,0,0,0-.865,2.23c-7.555-4-9.977-6.692-9.977-16.858,1.406.329,9.6,5.9,10.782,9.859.493,1.648-.221,1.008.914,1.84-.468-2.013-.382-5.49-.625-7.631a59.436,59.436,0,0,0-1.094-7.162,1.171,1.171,0,0,0-.11.233l-.233,1.831c-4.885,0-7.99-1.075-10.872-3.234-2.24-1.678-5.088-6.3-5.3-8.808,1,.233,1.04.395,2.065.689,7.013,2.022,6.042.568,12.385,4.816-.137-1.65-2.189-5.065-2.982-6.651-.924-1.848-2.118-4.681-3.555-5.734-.427-1.838-7.49-10.721-8.943-11.7.417,1.562.92.8,1.376,2.751-5.012,2.406-10.48.738-14.521-2.678-.818-.691-.683-.411-.961-1.449,2.39-1.147,8.935-2.009,12.729,0-.364-1.367-4.223-4.282-4.566-4.378-1.036-.286-2.606-.258-3.888-.585-7.759-1.97-8.4-7.62-10.122-11.206a50.6,50.6,0,0,1,6.267,1.643,19.4,19.4,0,0,1,5.635,2.279,7.349,7.349,0,0,1,3.179,4.734c.413,1.991.145,1.3,1.517,2.61l15.739,19.695c.235.981-.051.517.689,1.032.517,2.22,7.913,12.747,7.913,27.865a8.01,8.01,0,0,0,.611-.767c2.858-3.894,5.656-5.2,9.552-7.99.946-.679.374-.566,1.533-.877v.258c0,5.355-.049,7.322-2.543,10.617-1.32,1.746-5.239,5.084-7.778,5.294-.294-.556-.4-.91-.63-1.433l-.746-1.318A32.933,32.933,0,0,1,694.435,265.6Z" transform="translate(-553.644 -194.99)" fill="#fff" fill-rule="evenodd"/>
      <path id="Caminho_142" data-name="Caminho 142" d="M810.652,285.9c1.366.915,1.394,1.588,3.44,2.064,5.382-3.6,3.174-17.614-1.72-18.921a12.482,12.482,0,0,1-1.133,3.683A25.475,25.475,0,0,0,810.1,276.4c-1.612,6.408-.4,5.268-.132,8.468C810.7,285.378,810.417,284.914,810.652,285.9Z" transform="translate(-676.83 -253.903)" fill="#fff" fill-rule="evenodd"/>
      <path id="Caminho_143" data-name="Caminho 143" d="M659.7,775.994c.806.844-1.732-1.552-.049-.041l.049.041c-.087-.091-.211-.218-.385-.393a3.384,3.384,0,0,0-1.339-1.069c-2.954-1.469-7.277-.881-10.208.959-1.01.634-.5.681-1.74,1.012.106,1.273.4,1.4,1.279,2.162a12.375,12.375,0,0,0,2.266,1.518c3.575,1.919,9.16,1.871,13.045.869,1.473-.38,2.171-.83,3.364-1.108C665.272,777.287,661.672,777.7,659.7,775.994Z" transform="translate(-546.952 -655.41)" fill="#fff" fill-rule="evenodd"/>
      <path id="Caminho_144" data-name="Caminho 144" d="M735.767,664.69c.347.3.556,1.206.556,2.815,0,.4-.07,1.206-.139,2.461a7.575,7.575,0,0,1-.139,1.406.711.711,0,0,1-.278.4c-.347-.3-.487-1.306-.487-2.864,0-.4,0-1.206.07-2.412a7.435,7.435,0,0,1,.139-1.357A.857.857,0,0,1,735.767,664.69Z" transform="translate(-617.96 -568.679)" fill="#fff" fill-rule="evenodd"/>
      <path id="Caminho_145" data-name="Caminho 145" d="M719.661,641.963c-.272-1.141-.529-1.613-.775-2.663-3.63,1.919-7.226,7.134-7.226,12.728a12.222,12.222,0,0,0,.35,3.177H717.5C720.676,651.988,720.529,645.616,719.661,641.963ZM718.5,652.629a1.885,1.885,0,0,1-1.529.754,1.807,1.807,0,0,1-1.529-.8c-.693-.854-1.04-2.363-1.04-4.573,0-2.161.348-3.669,1.04-4.573a1.857,1.857,0,0,1,3.058,0c.7.9,1.042,2.412,1.042,4.573S719.2,651.726,718.5,652.629Zm-6.163,4.46c0,.031.006.065.008.1a8.941,8.941,0,0,0,1.357-.1,6.861,6.861,0,0,0,2.457-.842H712.23C712.273,656.5,712.312,656.771,712.341,657.09Z" transform="translate(-599.168 -548.479)" fill="#fff" fill-rule="evenodd"/>
      <path id="Caminho_146" data-name="Caminho 146" d="M232.312,282.083a21.61,21.61,0,0,0-.843-4.343l-2.244-5.669c-.616-1.2-.1-1-1.4-1.35-.269,1.157-1.542,3.024-2.185,4.352-2.757,5.691-1.476,12.118,2.185,14.569,2.307-.616,2.449-2.118,3.784-3.1C231.761,284.693,232.438,284.6,232.312,282.083Z" transform="translate(-211.311 -255.242)" fill="#fff" fill-rule="evenodd"/>
      <path id="Caminho_147" data-name="Caminho 147" d="M339.95,722.21h3.976c-.106.282-.227.562-.364.842-.067.147-.141.294-.219.442a15.13,15.13,0,0,1-1.543-.442A10.126,10.126,0,0,1,339.95,722.21Z" transform="translate(-303.439 -614.442)" fill="#fff" fill-rule="evenodd"/>
      <path id="Caminho_148" data-name="Caminho 148" d="M330.211,655.2h-5.687c-2.091-2.054-2.455-5.223-2.15-9.718.076-1.126-.041-2.267.082-3.385a15.5,15.5,0,0,0,.294-2.8,8.087,8.087,0,0,1,3.283,2.24v10.437a1.758,1.758,0,0,0,.278.955,1.874,1.874,0,0,0,.9.452l1.6-1.155a1.277,1.277,0,0,1-.554-.352,1.834,1.834,0,0,1-.139-.754v-6.942A13.879,13.879,0,0,1,330.211,655.2Z" transform="translate(-289.38 -548.479)" fill="#fff" fill-rule="evenodd"/>
      <path id="Caminho_149" data-name="Caminho 149" d="M193.759,362.012a6.068,6.068,0,0,0,1.934-2.194c2.229-3.716.694-7.528-1.308-10.817-.819-1.345-3.078-5.187-4.066-5.91a13.63,13.63,0,0,0-2.064,6.536C188.255,354.807,188.709,359.34,193.759,362.012Z" transform="translate(-182.751 -312.818)" fill="#fff" fill-rule="evenodd"/>
      <path id="Caminho_150" data-name="Caminho 150" d="M769.556,608.013h-7.4c0-.349,0-.693,0-1.022V606.4a12.036,12.036,0,0,1,.509-3.262c1.645.086,3.25.221,4.842.4a3.279,3.279,0,0,0,.4.022,3.4,3.4,0,0,0,.409-.025c.014.037.027.07.039.1a25.816,25.816,0,0,1,1.01,3.344C769.433,607.328,769.5,607.67,769.556,608.013Z" transform="translate(-639.338 -519.711)" fill="#fff" fill-rule="evenodd"/>
      <path id="Caminho_151" data-name="Caminho 151" d="M768.823,637.3h0c-.065.045-.125.092-.186.143a1.912,1.912,0,0,0-.495.838A5.657,5.657,0,0,1,765,640.1c-2.171-1.59-2.631-4.961-2.729-8.009h7.51A8.821,8.821,0,0,1,768.823,637.3Z" transform="translate(-639.433 -542.743)" fill="#fff" fill-rule="evenodd"/>
      <path id="Caminho_152" data-name="Caminho 152" d="M240.354,462.869a13.621,13.621,0,0,1-1.415,2.549l-.006.008a17.428,17.428,0,0,1-3.316,3.275,8.364,8.364,0,0,1-3.912,1.866c-1.335-2.524-1.376-2.271-1.376-4.816,0-2.762,2.416-5.251,4.988-7.4a13.388,13.388,0,0,0,.865,1.057A15.82,15.82,0,0,0,240.354,462.869Z" transform="translate(-216.226 -404.517)" fill="#fff" fill-rule="evenodd"/>
      <path id="Caminho_153" data-name="Caminho 153" d="M246.672,550.119a10.123,10.123,0,0,1-1.466.948c-1.938-1.024-3.1-2.588-3.1-5.5a9.429,9.429,0,0,1,2.757-6.353c.053.662.125,1.382.213,2.154.149,1.523.307,3.211.307,4.041,0,.583,0,1.306-.029,1.582a3.449,3.449,0,0,0,.985,2.8Z" transform="translate(-225.598 -468.849)" fill="#fff" fill-rule="evenodd"/>
      <path id="Caminho_154" data-name="Caminho 154" d="M285.53,665.5q.071-.04.147-.074v.217C285.628,665.6,285.579,665.553,285.53,665.5Z" transform="translate(-260.143 -569.268)" fill="#fff" fill-rule="evenodd"/>
      <path id="Caminho_155" data-name="Caminho 155" d="M275.821,632.09h7.522a18.241,18.241,0,0,1-.842,5.106c-.472,1.374-1.255,2.064-1.57,3.248a5.215,5.215,0,0,1-.934-.161V636.9h-.973a4.338,4.338,0,0,0-2.316.6,9.355,9.355,0,0,1-.938-4.274C275.77,632.842,275.788,632.466,275.821,632.09Z" transform="translate(-252.378 -542.743)" fill="#fff" fill-rule="evenodd"/>
      <path id="Caminho_157" data-name="Caminho 157" d="M846.984,361.324c6.119-1.426,7.081-16.893,2.064-18.233C848.167,346.875,838.9,355.913,846.984,361.324Z" transform="translate(-704.218 -312.818)" fill="#fff" fill-rule="evenodd"/>
      <path id="Caminho_158" data-name="Caminho 158" d="M786.478,508.02a7.452,7.452,0,0,1,2.187,1.713,3.427,3.427,0,0,0-1.492,1.249,15.575,15.575,0,0,1-1.363,1.772C785.906,510.845,786.333,509.772,786.478,508.02Z" transform="translate(-658.161 -444.034)" fill="#fff" fill-rule="evenodd"/>
      <path id="Caminho_159" data-name="Caminho 159" d="M812.831,552.642c0,1.028-1.018,4.487-2.408,5.5a7.1,7.1,0,0,1-2.733-1.316,23.661,23.661,0,0,1,1.443-3.3c.016-.035.035-.07.051-.1.879-1.844,1.578-3.479,2.091-4.889A9.123,9.123,0,0,1,812.831,552.642Z" transform="translate(-675.569 -476.271)" fill="#fff" fill-rule="evenodd"/>
      <path id="Caminho_160" data-name="Caminho 160" d="M762.1,223.625c.194-2.329.688-2.052.688-5.848,0-5.216-3.072-10.041-7.224-11.009-.035,1.556-.344,1.367-.344,3.1C755.218,215.381,754.108,223.625,762.1,223.625Z" transform="translate(-633.781 -204.36)" fill="#fff" fill-rule="evenodd"/>
      <path id="Caminho_161" data-name="Caminho 161" d="M287.463,208.451c-4.22.351-9.18,9.914-5.848,16.857,2.888-.064,3.533-1.318,5.16-2.408.458-1.965,1.437-2.683,1.717-6.911C288.648,213.623,287.636,210.531,287.463,208.451Z" transform="translate(-256.158 -205.699)" fill="#fff" fill-rule="evenodd"/>
      <path id="Caminho_162" data-name="Caminho 162" d="M291.249,317.818c-4.327,0-10.581-.292-13.695,2.818a6.872,6.872,0,0,0-1.786,3.719c0,2.075-.14,1.72,4.128,1.72C284.859,326.074,290.341,321.716,291.249,317.818Z" transform="translate(-252.375 -292.705)" fill="#fff" fill-rule="evenodd"/>
      <path id="Caminho_163" data-name="Caminho 163" d="M737.04,319.417a7.409,7.409,0,0,0-1.293-1.116c-3.157-2.289-8.133-2.146-12.3-2.146.3,3.569,8.28,11.216,15.825,7.224a17.694,17.694,0,0,1-1.032-2.752C737.258,319.971,737.753,320.189,737.04,319.417Z" transform="translate(-608.544 -291.387)" fill="#fff" fill-rule="evenodd"/>
    </g>
    <g id="Grupo_71" data-name="Grupo 71" transform="translate(146.18 282.27)">
      <path id="Caminho_164" data-name="Caminho 164" d="M307.18,621.98,306.411,623H146.9c-.276-.376-.519-.722-.72-1.022Z" transform="translate(-146.18 -621.98)" fill="#fff" fill-rule="evenodd"/>
      <path id="Caminho_165" data-name="Caminho 165" d="M180.464,638.979a1.564,1.564,0,0,0-.421.37,3.192,3.192,0,0,0-.2.26,5.752,5.752,0,0,0-.206,1.811c0,.063,0,.131,0,.2v1.909a5.64,5.64,0,0,0,.278,2.363c.139.2.208.251.347.251a.642.642,0,0,0,.347-.1V638.9Q180.535,638.939,180.464,638.979Zm0,0a1.564,1.564,0,0,0-.421.37,3.192,3.192,0,0,0-.2.26,5.752,5.752,0,0,0-.206,1.811c0,.063,0,.131,0,.2v1.909a5.64,5.64,0,0,0,.278,2.363c.139.2.208.251.347.251a.642.642,0,0,0,.347-.1V638.9Q180.535,638.939,180.464,638.979Zm0,0a1.564,1.564,0,0,0-.421.37,3.192,3.192,0,0,0-.2.26,5.752,5.752,0,0,0-.206,1.811c0,.063,0,.131,0,.2v1.909a5.64,5.64,0,0,0,.278,2.363c.139.2.208.251.347.251a.642.642,0,0,0,.347-.1V638.9Q180.535,638.939,180.464,638.979Zm0,0a1.564,1.564,0,0,0-.421.37,3.192,3.192,0,0,0-.2.26,5.752,5.752,0,0,0-.206,1.811c0,.063,0,.131,0,.2v1.909a5.64,5.64,0,0,0,.278,2.363c.139.2.208.251.347.251a.642.642,0,0,0,.347-.1V638.9Q180.535,638.939,180.464,638.979Zm0,0a1.564,1.564,0,0,0-.421.37,3.192,3.192,0,0,0-.2.26,5.752,5.752,0,0,0-.206,1.811c0,.063,0,.131,0,.2v1.909a5.64,5.64,0,0,0,.278,2.363c.139.2.208.251.347.251a.642.642,0,0,0,.347-.1V638.9Q180.535,638.939,180.464,638.979Zm52.606-.425a2.241,2.241,0,0,0-.347.6,2.737,2.737,0,0,0-.209,1.106v1.355a1.261,1.261,0,0,0,.764-.552,2.492,2.492,0,0,0,.278-1.206A1.639,1.639,0,0,0,233.071,638.553Zm0,0a2.241,2.241,0,0,0-.347.6,2.737,2.737,0,0,0-.209,1.106v1.355a1.261,1.261,0,0,0,.764-.552,2.492,2.492,0,0,0,.278-1.206A1.639,1.639,0,0,0,233.071,638.553Zm-52.606.425a1.564,1.564,0,0,0-.421.37,3.192,3.192,0,0,0-.2.26,5.752,5.752,0,0,0-.206,1.811c0,.063,0,.131,0,.2v1.909a5.64,5.64,0,0,0,.278,2.363c.139.2.208.251.347.251a.642.642,0,0,0,.347-.1V638.9Q180.535,638.939,180.464,638.979Zm0,0a1.564,1.564,0,0,0-.421.37,3.192,3.192,0,0,0-.2.26,5.752,5.752,0,0,0-.206,1.811c0,.063,0,.131,0,.2v1.909a5.64,5.64,0,0,0,.278,2.363c.139.2.208.251.347.251a.642.642,0,0,0,.347-.1V638.9Q180.535,638.939,180.464,638.979Zm52.606-.425a2.241,2.241,0,0,0-.347.6,2.737,2.737,0,0,0-.209,1.106v1.355a1.261,1.261,0,0,0,.764-.552,2.492,2.492,0,0,0,.278-1.206A1.639,1.639,0,0,0,233.071,638.553Zm0,0a2.241,2.241,0,0,0-.347.6,2.737,2.737,0,0,0-.209,1.106v1.355a1.261,1.261,0,0,0,.764-.552,2.492,2.492,0,0,0,.278-1.206A1.639,1.639,0,0,0,233.071,638.553Zm-52.606.425a1.564,1.564,0,0,0-.421.37,3.192,3.192,0,0,0-.2.26,5.752,5.752,0,0,0-.206,1.811c0,.063,0,.131,0,.2v1.909a5.64,5.64,0,0,0,.278,2.363c.139.2.208.251.347.251a.642.642,0,0,0,.347-.1V638.9Q180.535,638.939,180.464,638.979Zm0,0a1.564,1.564,0,0,0-.421.37,3.192,3.192,0,0,0-.2.26,5.752,5.752,0,0,0-.206,1.811c0,.063,0,.131,0,.2v1.909a5.64,5.64,0,0,0,.278,2.363c.139.2.208.251.347.251a.642.642,0,0,0,.347-.1V638.9Q180.535,638.939,180.464,638.979Zm52.606-.425a2.241,2.241,0,0,0-.347.6,2.737,2.737,0,0,0-.209,1.106v1.355a1.261,1.261,0,0,0,.764-.552,2.492,2.492,0,0,0,.278-1.206A1.639,1.639,0,0,0,233.071,638.553Zm39.813.2a.857.857,0,0,0-.278.452,7.43,7.43,0,0,0-.139,1.357c-.07,1.206-.07,2.009-.07,2.412,0,1.558.139,2.563.487,2.864a.711.711,0,0,0,.278-.4,7.571,7.571,0,0,0,.139-1.406c.069-1.255.139-2.06.139-2.461C273.439,639.96,273.231,639.056,272.883,638.754Zm0,0a.857.857,0,0,0-.278.452,7.43,7.43,0,0,0-.139,1.357c-.07,1.206-.07,2.009-.07,2.412,0,1.558.139,2.563.487,2.864a.711.711,0,0,0,.278-.4,7.571,7.571,0,0,0,.139-1.406c.069-1.255.139-2.06.139-2.461C273.439,639.96,273.231,639.056,272.883,638.754Zm-39.813-.2a2.241,2.241,0,0,0-.347.6,2.737,2.737,0,0,0-.209,1.106v1.355a1.261,1.261,0,0,0,.764-.552,2.492,2.492,0,0,0,.278-1.206A1.639,1.639,0,0,0,233.071,638.553Zm-52.606.425a1.564,1.564,0,0,0-.421.37,3.192,3.192,0,0,0-.2.26,5.752,5.752,0,0,0-.206,1.811c0,.063,0,.131,0,.2v1.909a5.64,5.64,0,0,0,.278,2.363c.139.2.208.251.347.251a.642.642,0,0,0,.347-.1V638.9Q180.535,638.939,180.464,638.979Zm0,0a1.564,1.564,0,0,0-.421.37,3.192,3.192,0,0,0-.2.26,5.752,5.752,0,0,0-.206,1.811c0,.063,0,.131,0,.2v1.909a5.64,5.64,0,0,0,.278,2.363c.139.2.208.251.347.251a.642.642,0,0,0,.347-.1V638.9Q180.535,638.939,180.464,638.979Zm52.606-.425a2.241,2.241,0,0,0-.347.6,2.737,2.737,0,0,0-.209,1.106v1.355a1.261,1.261,0,0,0,.764-.552,2.492,2.492,0,0,0,.278-1.206A1.639,1.639,0,0,0,233.071,638.553Zm39.813.2a.857.857,0,0,0-.278.452,7.43,7.43,0,0,0-.139,1.357c-.07,1.206-.07,2.009-.07,2.412,0,1.558.139,2.563.487,2.864a.711.711,0,0,0,.278-.4,7.571,7.571,0,0,0,.139-1.406c.069-1.255.139-2.06.139-2.461C273.439,639.96,273.231,639.056,272.883,638.754Zm0,0a.857.857,0,0,0-.278.452,7.43,7.43,0,0,0-.139,1.357c-.07,1.206-.07,2.009-.07,2.412,0,1.558.139,2.563.487,2.864a.711.711,0,0,0,.278-.4,7.571,7.571,0,0,0,.139-1.406c.069-1.255.139-2.06.139-2.461C273.439,639.96,273.231,639.056,272.883,638.754Zm-39.813-.2a2.241,2.241,0,0,0-.347.6,2.737,2.737,0,0,0-.209,1.106v1.355a1.261,1.261,0,0,0,.764-.552,2.492,2.492,0,0,0,.278-1.206A1.639,1.639,0,0,0,233.071,638.553Zm-52.606.425a1.564,1.564,0,0,0-.421.37,3.192,3.192,0,0,0-.2.26,5.752,5.752,0,0,0-.206,1.811c0,.063,0,.131,0,.2v1.909a5.64,5.64,0,0,0,.278,2.363c.139.2.208.251.347.251a.642.642,0,0,0,.347-.1V638.9Q180.535,638.939,180.464,638.979Zm0,0a1.564,1.564,0,0,0-.421.37,3.192,3.192,0,0,0-.2.26,5.752,5.752,0,0,0-.206,1.811c0,.063,0,.131,0,.2v1.909a5.64,5.64,0,0,0,.278,2.363c.139.2.208.251.347.251a.642.642,0,0,0,.347-.1V638.9Q180.535,638.939,180.464,638.979Zm52.606-.425a2.241,2.241,0,0,0-.347.6,2.737,2.737,0,0,0-.209,1.106v1.355a1.261,1.261,0,0,0,.764-.552,2.492,2.492,0,0,0,.278-1.206A1.639,1.639,0,0,0,233.071,638.553Zm39.813.2a.857.857,0,0,0-.278.452,7.43,7.43,0,0,0-.139,1.357c-.07,1.206-.07,2.009-.07,2.412,0,1.558.139,2.563.487,2.864a.711.711,0,0,0,.278-.4,7.571,7.571,0,0,0,.139-1.406c.069-1.255.139-2.06.139-2.461C273.439,639.96,273.231,639.056,272.883,638.754Zm0,0a.857.857,0,0,0-.278.452,7.43,7.43,0,0,0-.139,1.357c-.07,1.206-.07,2.009-.07,2.412,0,1.558.139,2.563.487,2.864a.711.711,0,0,0,.278-.4,7.571,7.571,0,0,0,.139-1.406c.069-1.255.139-2.06.139-2.461C273.439,639.96,273.231,639.056,272.883,638.754Zm-39.813-.2a2.241,2.241,0,0,0-.347.6,2.737,2.737,0,0,0-.209,1.106v1.355a1.261,1.261,0,0,0,.764-.552,2.492,2.492,0,0,0,.278-1.206A1.639,1.639,0,0,0,233.071,638.553Zm-52.606.425a1.564,1.564,0,0,0-.421.37,3.192,3.192,0,0,0-.2.26,5.752,5.752,0,0,0-.206,1.811c0,.063,0,.131,0,.2v1.909a5.64,5.64,0,0,0,.278,2.363c.139.2.208.251.347.251a.642.642,0,0,0,.347-.1V638.9Q180.535,638.939,180.464,638.979Zm0,0a1.564,1.564,0,0,0-.421.37,3.192,3.192,0,0,0-.2.26,5.752,5.752,0,0,0-.206,1.811c0,.063,0,.131,0,.2v1.909a5.64,5.64,0,0,0,.278,2.363c.139.2.208.251.347.251a.642.642,0,0,0,.347-.1V638.9Q180.535,638.939,180.464,638.979Zm52.606-.425a2.241,2.241,0,0,0-.347.6,2.737,2.737,0,0,0-.209,1.106v1.355a1.261,1.261,0,0,0,.764-.552,2.492,2.492,0,0,0,.278-1.206A1.639,1.639,0,0,0,233.071,638.553Zm39.813.2a.857.857,0,0,0-.278.452,7.43,7.43,0,0,0-.139,1.357c-.07,1.206-.07,2.009-.07,2.412,0,1.558.139,2.563.487,2.864a.711.711,0,0,0,.278-.4,7.571,7.571,0,0,0,.139-1.406c.069-1.255.139-2.06.139-2.461C273.439,639.96,273.231,639.056,272.883,638.754Zm0,0a.857.857,0,0,0-.278.452,7.43,7.43,0,0,0-.139,1.357c-.07,1.206-.07,2.009-.07,2.412,0,1.558.139,2.563.487,2.864a.711.711,0,0,0,.278-.4,7.571,7.571,0,0,0,.139-1.406c.069-1.255.139-2.06.139-2.461C273.439,639.96,273.231,639.056,272.883,638.754Zm-39.813-.2a2.241,2.241,0,0,0-.347.6,2.737,2.737,0,0,0-.209,1.106v1.355a1.261,1.261,0,0,0,.764-.552,2.492,2.492,0,0,0,.278-1.206A1.639,1.639,0,0,0,233.071,638.553Zm-52.606.425a1.564,1.564,0,0,0-.421.37,3.192,3.192,0,0,0-.2.26,5.752,5.752,0,0,0-.206,1.811c0,.063,0,.131,0,.2v1.909a5.64,5.64,0,0,0,.278,2.363c.139.2.208.251.347.251a.642.642,0,0,0,.347-.1V638.9Q180.535,638.939,180.464,638.979Zm0,0a1.564,1.564,0,0,0-.421.37,3.192,3.192,0,0,0-.2.26,5.752,5.752,0,0,0-.206,1.811c0,.063,0,.131,0,.2v1.909a5.64,5.64,0,0,0,.278,2.363c.139.2.208.251.347.251a.642.642,0,0,0,.347-.1V638.9Q180.535,638.939,180.464,638.979Zm52.606-.425a2.241,2.241,0,0,0-.347.6,2.737,2.737,0,0,0-.209,1.106v1.355a1.261,1.261,0,0,0,.764-.552,2.492,2.492,0,0,0,.278-1.206A1.639,1.639,0,0,0,233.071,638.553Zm39.813.2a.857.857,0,0,0-.278.452,7.43,7.43,0,0,0-.139,1.357c-.07,1.206-.07,2.009-.07,2.412,0,1.558.139,2.563.487,2.864a.711.711,0,0,0,.278-.4,7.571,7.571,0,0,0,.139-1.406c.069-1.255.139-2.06.139-2.461C273.439,639.96,273.231,639.056,272.883,638.754Zm0,0a.857.857,0,0,0-.278.452,7.43,7.43,0,0,0-.139,1.357c-.07,1.206-.07,2.009-.07,2.412,0,1.558.139,2.563.487,2.864a.711.711,0,0,0,.278-.4,7.571,7.571,0,0,0,.139-1.406c.069-1.255.139-2.06.139-2.461C273.439,639.96,273.231,639.056,272.883,638.754Zm-39.813-.2a2.241,2.241,0,0,0-.347.6,2.737,2.737,0,0,0-.209,1.106v1.355a1.261,1.261,0,0,0,.764-.552,2.492,2.492,0,0,0,.278-1.206A1.639,1.639,0,0,0,233.071,638.553Zm-52.606.425a1.564,1.564,0,0,0-.421.37,3.192,3.192,0,0,0-.2.26,5.752,5.752,0,0,0-.206,1.811c0,.063,0,.131,0,.2v1.909a5.64,5.64,0,0,0,.278,2.363c.139.2.208.251.347.251a.642.642,0,0,0,.347-.1V638.9Q180.535,638.939,180.464,638.979Zm0,0a1.564,1.564,0,0,0-.421.37,3.192,3.192,0,0,0-.2.26,5.752,5.752,0,0,0-.206,1.811c0,.063,0,.131,0,.2v1.909a5.64,5.64,0,0,0,.278,2.363c.139.2.208.251.347.251a.642.642,0,0,0,.347-.1V638.9Q180.535,638.939,180.464,638.979Zm52.606-.425a2.241,2.241,0,0,0-.347.6,2.737,2.737,0,0,0-.209,1.106v1.355a1.261,1.261,0,0,0,.764-.552,2.492,2.492,0,0,0,.278-1.206A1.639,1.639,0,0,0,233.071,638.553Zm39.813.2a.857.857,0,0,0-.278.452,7.43,7.43,0,0,0-.139,1.357c-.07,1.206-.07,2.009-.07,2.412,0,1.558.139,2.563.487,2.864a.711.711,0,0,0,.278-.4,7.571,7.571,0,0,0,.139-1.406c.069-1.255.139-2.06.139-2.461C273.439,639.96,273.231,639.056,272.883,638.754Zm0,0a.857.857,0,0,0-.278.452,7.43,7.43,0,0,0-.139,1.357c-.07,1.206-.07,2.009-.07,2.412,0,1.558.139,2.563.487,2.864a.711.711,0,0,0,.278-.4,7.571,7.571,0,0,0,.139-1.406c.069-1.255.139-2.06.139-2.461C273.439,639.96,273.231,639.056,272.883,638.754Zm-39.813-.2a2.241,2.241,0,0,0-.347.6,2.737,2.737,0,0,0-.209,1.106v1.355a1.261,1.261,0,0,0,.764-.552,2.492,2.492,0,0,0,.278-1.206A1.639,1.639,0,0,0,233.071,638.553Zm-52.606.425a1.564,1.564,0,0,0-.421.37,3.192,3.192,0,0,0-.2.26,5.752,5.752,0,0,0-.206,1.811c0,.063,0,.131,0,.2v1.909a5.64,5.64,0,0,0,.278,2.363c.139.2.208.251.347.251a.642.642,0,0,0,.347-.1V638.9Q180.535,638.939,180.464,638.979Zm0,0a1.564,1.564,0,0,0-.421.37,3.192,3.192,0,0,0-.2.26,5.752,5.752,0,0,0-.206,1.811c0,.063,0,.131,0,.2v1.909a5.64,5.64,0,0,0,.278,2.363c.139.2.208.251.347.251a.642.642,0,0,0,.347-.1V638.9Q180.535,638.939,180.464,638.979Zm52.606-.425a2.241,2.241,0,0,0-.347.6,2.737,2.737,0,0,0-.209,1.106v1.355a1.261,1.261,0,0,0,.764-.552,2.492,2.492,0,0,0,.278-1.206A1.639,1.639,0,0,0,233.071,638.553Zm39.813.2a.857.857,0,0,0-.278.452,7.43,7.43,0,0,0-.139,1.357c-.07,1.206-.07,2.009-.07,2.412,0,1.558.139,2.563.487,2.864a.711.711,0,0,0,.278-.4,7.571,7.571,0,0,0,.139-1.406c.069-1.255.139-2.06.139-2.461C273.439,639.96,273.231,639.056,272.883,638.754Zm0,0a.857.857,0,0,0-.278.452,7.43,7.43,0,0,0-.139,1.357c-.07,1.206-.07,2.009-.07,2.412,0,1.558.139,2.563.487,2.864a.711.711,0,0,0,.278-.4,7.571,7.571,0,0,0,.139-1.406c.069-1.255.139-2.06.139-2.461C273.439,639.96,273.231,639.056,272.883,638.754Zm-39.813-.2a2.241,2.241,0,0,0-.347.6,2.737,2.737,0,0,0-.209,1.106v1.355a1.261,1.261,0,0,0,.764-.552,2.492,2.492,0,0,0,.278-1.206A1.639,1.639,0,0,0,233.071,638.553Zm-52.606.425a1.564,1.564,0,0,0-.421.37,3.192,3.192,0,0,0-.2.26,5.752,5.752,0,0,0-.206,1.811c0,.063,0,.131,0,.2v1.909a5.64,5.64,0,0,0,.278,2.363c.139.2.208.251.347.251a.642.642,0,0,0,.347-.1V638.9Q180.535,638.939,180.464,638.979Zm0,0a1.564,1.564,0,0,0-.421.37,3.192,3.192,0,0,0-.2.26,5.752,5.752,0,0,0-.206,1.811c0,.063,0,.131,0,.2v1.909a5.64,5.64,0,0,0,.278,2.363c.139.2.208.251.347.251a.642.642,0,0,0,.347-.1V638.9Q180.535,638.939,180.464,638.979Zm52.606-.425a2.241,2.241,0,0,0-.347.6,2.737,2.737,0,0,0-.209,1.106v1.355a1.261,1.261,0,0,0,.764-.552,2.492,2.492,0,0,0,.278-1.206A1.639,1.639,0,0,0,233.071,638.553Zm39.813.2a.857.857,0,0,0-.278.452,7.43,7.43,0,0,0-.139,1.357c-.07,1.206-.07,2.009-.07,2.412,0,1.558.139,2.563.487,2.864a.711.711,0,0,0,.278-.4,7.571,7.571,0,0,0,.139-1.406c.069-1.255.139-2.06.139-2.461C273.439,639.96,273.231,639.056,272.883,638.754Zm0,0a.857.857,0,0,0-.278.452,7.43,7.43,0,0,0-.139,1.357c-.07,1.206-.07,2.009-.07,2.412,0,1.558.139,2.563.487,2.864a.711.711,0,0,0,.278-.4,7.571,7.571,0,0,0,.139-1.406c.069-1.255.139-2.06.139-2.461C273.439,639.96,273.231,639.056,272.883,638.754Zm-39.813-.2a2.241,2.241,0,0,0-.347.6,2.737,2.737,0,0,0-.209,1.106v1.355a1.261,1.261,0,0,0,.764-.552,2.492,2.492,0,0,0,.278-1.206A1.639,1.639,0,0,0,233.071,638.553Zm-52.606.425a1.564,1.564,0,0,0-.421.37,3.192,3.192,0,0,0-.2.26,5.752,5.752,0,0,0-.206,1.811c0,.063,0,.131,0,.2v1.909a5.64,5.64,0,0,0,.278,2.363c.139.2.208.251.347.251a.642.642,0,0,0,.347-.1V638.9Q180.535,638.939,180.464,638.979Zm0,0a1.564,1.564,0,0,0-.421.37,3.192,3.192,0,0,0-.2.26,5.752,5.752,0,0,0-.206,1.811c0,.063,0,.131,0,.2v1.909a5.64,5.64,0,0,0,.278,2.363c.139.2.208.251.347.251a.642.642,0,0,0,.347-.1V638.9Q180.535,638.939,180.464,638.979Zm52.606-.425a2.241,2.241,0,0,0-.347.6,2.737,2.737,0,0,0-.209,1.106v1.355a1.261,1.261,0,0,0,.764-.552,2.492,2.492,0,0,0,.278-1.206A1.639,1.639,0,0,0,233.071,638.553Zm39.813.2a.857.857,0,0,0-.278.452,7.43,7.43,0,0,0-.139,1.357c-.07,1.206-.07,2.009-.07,2.412,0,1.558.139,2.563.487,2.864a.711.711,0,0,0,.278-.4,7.571,7.571,0,0,0,.139-1.406c.069-1.255.139-2.06.139-2.461C273.439,639.96,273.231,639.056,272.883,638.754Zm0,0a.857.857,0,0,0-.278.452,7.43,7.43,0,0,0-.139,1.357c-.07,1.206-.07,2.009-.07,2.412,0,1.558.139,2.563.487,2.864a.711.711,0,0,0,.278-.4,7.571,7.571,0,0,0,.139-1.406c.069-1.255.139-2.06.139-2.461C273.439,639.96,273.231,639.056,272.883,638.754Zm-39.813-.2a2.241,2.241,0,0,0-.347.6,2.737,2.737,0,0,0-.209,1.106v1.355a1.261,1.261,0,0,0,.764-.552,2.492,2.492,0,0,0,.278-1.206A1.639,1.639,0,0,0,233.071,638.553Zm-52.606.425a1.564,1.564,0,0,0-.421.37,3.192,3.192,0,0,0-.2.26,5.752,5.752,0,0,0-.206,1.811c0,.063,0,.131,0,.2v1.909a5.64,5.64,0,0,0,.278,2.363c.139.2.208.251.347.251a.642.642,0,0,0,.347-.1V638.9Q180.535,638.939,180.464,638.979Zm0,0a1.564,1.564,0,0,0-.421.37,3.192,3.192,0,0,0-.2.26,5.752,5.752,0,0,0-.206,1.811c0,.063,0,.131,0,.2v1.909a5.64,5.64,0,0,0,.278,2.363c.139.2.208.251.347.251a.642.642,0,0,0,.347-.1V638.9Q180.535,638.939,180.464,638.979Zm52.606-.425a2.241,2.241,0,0,0-.347.6,2.737,2.737,0,0,0-.209,1.106v1.355a1.261,1.261,0,0,0,.764-.552,2.492,2.492,0,0,0,.278-1.206A1.639,1.639,0,0,0,233.071,638.553Zm39.813.2a.857.857,0,0,0-.278.452,7.43,7.43,0,0,0-.139,1.357c-.07,1.206-.07,2.009-.07,2.412,0,1.558.139,2.563.487,2.864a.711.711,0,0,0,.278-.4,7.571,7.571,0,0,0,.139-1.406c.069-1.255.139-2.06.139-2.461C273.439,639.96,273.231,639.056,272.883,638.754Zm0,0a.857.857,0,0,0-.278.452,7.43,7.43,0,0,0-.139,1.357c-.07,1.206-.07,2.009-.07,2.412,0,1.558.139,2.563.487,2.864a.711.711,0,0,0,.278-.4,7.571,7.571,0,0,0,.139-1.406c.069-1.255.139-2.06.139-2.461C273.439,639.96,273.231,639.056,272.883,638.754Zm-39.813-.2a2.241,2.241,0,0,0-.347.6,2.737,2.737,0,0,0-.209,1.106v1.355a1.261,1.261,0,0,0,.764-.552,2.492,2.492,0,0,0,.278-1.206A1.639,1.639,0,0,0,233.071,638.553Zm-52.606.425a1.564,1.564,0,0,0-.421.37,3.192,3.192,0,0,0-.2.26,5.752,5.752,0,0,0-.206,1.811c0,.063,0,.131,0,.2v1.909a5.64,5.64,0,0,0,.278,2.363c.139.2.208.251.347.251a.642.642,0,0,0,.347-.1V638.9Q180.535,638.939,180.464,638.979Zm0,0a1.564,1.564,0,0,0-.421.37,3.192,3.192,0,0,0-.2.26,5.752,5.752,0,0,0-.206,1.811c0,.063,0,.131,0,.2v1.909a5.64,5.64,0,0,0,.278,2.363c.139.2.208.251.347.251a.642.642,0,0,0,.347-.1V638.9Q180.535,638.939,180.464,638.979Zm52.606-.425a2.241,2.241,0,0,0-.347.6,2.737,2.737,0,0,0-.209,1.106v1.355a1.261,1.261,0,0,0,.764-.552,2.492,2.492,0,0,0,.278-1.206A1.639,1.639,0,0,0,233.071,638.553Zm39.813.2a.857.857,0,0,0-.278.452,7.43,7.43,0,0,0-.139,1.357c-.07,1.206-.07,2.009-.07,2.412,0,1.558.139,2.563.487,2.864a.711.711,0,0,0,.278-.4,7.571,7.571,0,0,0,.139-1.406c.069-1.255.139-2.06.139-2.461C273.439,639.96,273.231,639.056,272.883,638.754Zm0,0a.857.857,0,0,0-.278.452,7.43,7.43,0,0,0-.139,1.357c-.07,1.206-.07,2.009-.07,2.412,0,1.558.139,2.563.487,2.864a.711.711,0,0,0,.278-.4,7.571,7.571,0,0,0,.139-1.406c.069-1.255.139-2.06.139-2.461C273.439,639.96,273.231,639.056,272.883,638.754Zm-39.813-.2a2.241,2.241,0,0,0-.347.6,2.737,2.737,0,0,0-.209,1.106v1.355a1.261,1.261,0,0,0,.764-.552,2.492,2.492,0,0,0,.278-1.206A1.639,1.639,0,0,0,233.071,638.553Zm-52.606.425a1.564,1.564,0,0,0-.421.37,3.192,3.192,0,0,0-.2.26,5.752,5.752,0,0,0-.206,1.811c0,.063,0,.131,0,.2v1.909a5.64,5.64,0,0,0,.278,2.363c.139.2.208.251.347.251a.642.642,0,0,0,.347-.1V638.9Q180.535,638.939,180.464,638.979Zm113.338,2.7v-.613h11.363c.57-1.482,2.876-4.378,3.688-5.535.65-.926,1.412-1.831,2.06-2.757l.513-.683H153.47c2.028,2.7,4.957,6.4,6.214,8.567h11.678v.613h-11.6c-1.259,2.246-4.1,5.7-5.879,8.2H311.056c-1.7-2.4-4.513-5.965-5.783-7.79Zm-90.819-7.647a1.454,1.454,0,0,1,.9-.3,1.146,1.146,0,0,1,.834.3.787.787,0,0,1,0,1.306,1.153,1.153,0,0,1-.834.3,1.465,1.465,0,0,1-.9-.3.838.838,0,0,1-.345-.654A.916.916,0,0,1,202.984,634.032Zm-20.913,13.616a1.063,1.063,0,0,1-.626-.251,1.631,1.631,0,0,1-.556-.6,1.7,1.7,0,0,1-1.39.854,1.6,1.6,0,0,1-1.251-.6c-.466-.675-.677-1.905-.693-3.822,0-.082,0-.164,0-.247v-1.257a5.127,5.127,0,0,1,1.32-3.818c.043-.041.086-.08.131-.117a3.361,3.361,0,0,1,.4-.29,4.338,4.338,0,0,1,2.316-.6h.973v7.888c0,.155.006.3.018.421a2.647,2.647,0,0,0,.121.634c.139.2.208.352.417.452Zm10.84,0a1.875,1.875,0,0,1-.9-.452,1.758,1.758,0,0,1-.278-.955V633.83h2.085v11.557a1.834,1.834,0,0,0,.139.754,1.277,1.277,0,0,0,.554.352Zm12.019-.1h-2.083V637h2.083Zm16.954,0h-2.154v-8.542a.755.755,0,0,0-.067-.4.933.933,0,0,0-.348-.1.684.684,0,0,0-.278.051c-.07.049-.139.151-.278.251v8.743h-2.085v-8.542a.754.754,0,0,0-.139-.4c-.07-.1-.139-.1-.278-.1a.684.684,0,0,0-.278.051c-.07.049-.139.151-.278.251v8.743h-2.085v-8.894a.835.835,0,0,0-.347-.654l1.251-1.1a1.47,1.47,0,0,1,1.042.8,3.116,3.116,0,0,1,.764-.654,1.946,1.946,0,0,1,.834-.149,1.692,1.692,0,0,1,1.459.8,5.316,5.316,0,0,1,.834-.654,1.506,1.506,0,0,1,.693-.149,1.75,1.75,0,0,1,1.181.4,2.071,2.071,0,0,1,.556,1.509Zm11.465-2.112a1.666,1.666,0,0,0,1.251.5,2.7,2.7,0,0,0,.9-.2V647.5a3.88,3.88,0,0,1-1.112.151,3.616,3.616,0,0,1-2.78-1.155c-.834-.805-1.181-2.161-1.181-4.172v-1.206a5.426,5.426,0,0,1,.9-3.516,2.45,2.45,0,0,1,1.737-.7,2.215,2.215,0,0,1,1.876.854,3.507,3.507,0,0,1,.625,2.109,3.135,3.135,0,0,1-.764,2.312,4.431,4.431,0,0,1-2.154,1.206A3.177,3.177,0,0,0,233.349,645.436Zm15.981,2.112h-2.085V638.9a.365.365,0,0,0-.139-.3.421.421,0,0,0-.348-.149.394.394,0,0,0-.208.1.491.491,0,0,0-.278.2v8.794h-2.083V638.9a.9.9,0,0,0-.417-.854l1.32-1.155a1.756,1.756,0,0,1,1.04.752,4.35,4.35,0,0,1,.834-.6,1.514,1.514,0,0,1,.7-.149,1.557,1.557,0,0,1,1.181.452,1.8,1.8,0,0,1,.487,1.406Zm12.577-.151a2,2,0,0,1-1.042.251,2.162,2.162,0,0,1-1.459-.452,1.4,1.4,0,0,1-.278-.323,1.862,1.862,0,0,1-.278-1.034V638.4h-1.042v-.5a16.539,16.539,0,0,0,2.5-2.612h.625V637h.973V638.4h-.973v7.236a.547.547,0,0,0,.031.176.361.361,0,0,0,.108.176.712.712,0,0,0,.417.151,1.245,1.245,0,0,0,.417-.1Zm10.977.251a1.807,1.807,0,0,1-1.529-.8c-.693-.854-1.04-2.363-1.04-4.573,0-2.161.348-3.669,1.04-4.573a1.857,1.857,0,0,1,3.058,0c.695.9,1.042,2.412,1.042,4.573s-.348,3.718-1.042,4.622A1.885,1.885,0,0,1,272.883,647.648Zm13.9-.552a2.457,2.457,0,0,1-1.737.552,3.41,3.41,0,0,1-1.39-.251v-1.607a1.264,1.264,0,0,0,.9.352,1.141,1.141,0,0,0,.695-.251.9.9,0,0,0,.278-.6,7.592,7.592,0,0,0-.834-2.614q-.331-.717-.558-1.329a7.115,7.115,0,0,1-.478-1.9c0-.065-.006-.127-.006-.186a3.264,3.264,0,0,1,.131-.971,1.912,1.912,0,0,1,.495-.838c.061-.051.121-.1.186-.143h0a2.186,2.186,0,0,1,.957-.38,2.31,2.31,0,0,1,.384-.029,3.052,3.052,0,0,1,1.39.352V638.7a1.156,1.156,0,0,0-.764-.251.733.733,0,0,0-.556.2c-.208.1-.278.3-.278.6a7.6,7.6,0,0,0,.834,2.512c.215.536.4,1.024.544,1.468a6.912,6.912,0,0,1,.429,2.05A2.4,2.4,0,0,1,286.781,647.1Zm-14.176-7.89a7.43,7.43,0,0,0-.139,1.357c-.07,1.206-.07,2.009-.07,2.412,0,1.558.139,2.563.487,2.864a.711.711,0,0,0,.278-.4,7.571,7.571,0,0,0,.139-1.406c.069-1.255.139-2.06.139-2.461,0-1.609-.208-2.512-.556-2.815A.857.857,0,0,0,272.605,639.205Zm-39.535-.652a2.241,2.241,0,0,0-.347.6,2.737,2.737,0,0,0-.209,1.106v1.355a1.261,1.261,0,0,0,.764-.552,2.492,2.492,0,0,0,.278-1.206A1.639,1.639,0,0,0,233.071,638.553Zm-53.028.8a3.192,3.192,0,0,0-.2.26,5.752,5.752,0,0,0-.206,1.811c0,.063,0,.131,0,.2v1.909a5.64,5.64,0,0,0,.278,2.363c.139.2.208.251.347.251a.642.642,0,0,0,.347-.1V638.9q-.077.034-.147.074A1.564,1.564,0,0,0,180.043,639.349Zm.421-.37a1.564,1.564,0,0,0-.421.37,3.192,3.192,0,0,0-.2.26,5.752,5.752,0,0,0-.206,1.811c0,.063,0,.131,0,.2v1.909a5.64,5.64,0,0,0,.278,2.363c.139.2.208.251.347.251a.642.642,0,0,0,.347-.1V638.9Q180.535,638.939,180.464,638.979Zm52.606-.425a2.241,2.241,0,0,0-.347.6,2.737,2.737,0,0,0-.209,1.106v1.355a1.261,1.261,0,0,0,.764-.552,2.492,2.492,0,0,0,.278-1.206A1.639,1.639,0,0,0,233.071,638.553Zm39.813.2a.857.857,0,0,0-.278.452,7.43,7.43,0,0,0-.139,1.357c-.07,1.206-.07,2.009-.07,2.412,0,1.558.139,2.563.487,2.864a.711.711,0,0,0,.278-.4,7.571,7.571,0,0,0,.139-1.406c.069-1.255.139-2.06.139-2.461C273.439,639.96,273.231,639.056,272.883,638.754Zm0,0a.857.857,0,0,0-.278.452,7.43,7.43,0,0,0-.139,1.357c-.07,1.206-.07,2.009-.07,2.412,0,1.558.139,2.563.487,2.864a.711.711,0,0,0,.278-.4,7.571,7.571,0,0,0,.139-1.406c.069-1.255.139-2.06.139-2.461C273.439,639.96,273.231,639.056,272.883,638.754Zm-39.813-.2a2.241,2.241,0,0,0-.347.6,2.737,2.737,0,0,0-.209,1.106v1.355a1.261,1.261,0,0,0,.764-.552,2.492,2.492,0,0,0,.278-1.206A1.639,1.639,0,0,0,233.071,638.553Zm-52.606.425a1.564,1.564,0,0,0-.421.37,3.192,3.192,0,0,0-.2.26,5.752,5.752,0,0,0-.206,1.811c0,.063,0,.131,0,.2v1.909a5.64,5.64,0,0,0,.278,2.363c.139.2.208.251.347.251a.642.642,0,0,0,.347-.1V638.9Q180.535,638.939,180.464,638.979Zm0,0a1.564,1.564,0,0,0-.421.37,3.192,3.192,0,0,0-.2.26,5.752,5.752,0,0,0-.206,1.811c0,.063,0,.131,0,.2v1.909a5.64,5.64,0,0,0,.278,2.363c.139.2.208.251.347.251a.642.642,0,0,0,.347-.1V638.9Q180.535,638.939,180.464,638.979Zm52.606-.425a2.241,2.241,0,0,0-.347.6,2.737,2.737,0,0,0-.209,1.106v1.355a1.261,1.261,0,0,0,.764-.552,2.492,2.492,0,0,0,.278-1.206A1.639,1.639,0,0,0,233.071,638.553Zm39.813.2a.857.857,0,0,0-.278.452,7.43,7.43,0,0,0-.139,1.357c-.07,1.206-.07,2.009-.07,2.412,0,1.558.139,2.563.487,2.864a.711.711,0,0,0,.278-.4,7.571,7.571,0,0,0,.139-1.406c.069-1.255.139-2.06.139-2.461C273.439,639.96,273.231,639.056,272.883,638.754Zm0,0a.857.857,0,0,0-.278.452,7.43,7.43,0,0,0-.139,1.357c-.07,1.206-.07,2.009-.07,2.412,0,1.558.139,2.563.487,2.864a.711.711,0,0,0,.278-.4,7.571,7.571,0,0,0,.139-1.406c.069-1.255.139-2.06.139-2.461C273.439,639.96,273.231,639.056,272.883,638.754Zm-39.813-.2a2.241,2.241,0,0,0-.347.6,2.737,2.737,0,0,0-.209,1.106v1.355a1.261,1.261,0,0,0,.764-.552,2.492,2.492,0,0,0,.278-1.206A1.639,1.639,0,0,0,233.071,638.553Zm-52.606.425a1.564,1.564,0,0,0-.421.37,3.192,3.192,0,0,0-.2.26,5.752,5.752,0,0,0-.206,1.811c0,.063,0,.131,0,.2v1.909a5.64,5.64,0,0,0,.278,2.363c.139.2.208.251.347.251a.642.642,0,0,0,.347-.1V638.9Q180.535,638.939,180.464,638.979Zm0,0a1.564,1.564,0,0,0-.421.37,3.192,3.192,0,0,0-.2.26,5.752,5.752,0,0,0-.206,1.811c0,.063,0,.131,0,.2v1.909a5.64,5.64,0,0,0,.278,2.363c.139.2.208.251.347.251a.642.642,0,0,0,.347-.1V638.9Q180.535,638.939,180.464,638.979Zm52.606-.425a2.241,2.241,0,0,0-.347.6,2.737,2.737,0,0,0-.209,1.106v1.355a1.261,1.261,0,0,0,.764-.552,2.492,2.492,0,0,0,.278-1.206A1.639,1.639,0,0,0,233.071,638.553Zm39.813.2a.857.857,0,0,0-.278.452,7.43,7.43,0,0,0-.139,1.357c-.07,1.206-.07,2.009-.07,2.412,0,1.558.139,2.563.487,2.864a.711.711,0,0,0,.278-.4,7.571,7.571,0,0,0,.139-1.406c.069-1.255.139-2.06.139-2.461C273.439,639.96,273.231,639.056,272.883,638.754Zm0,0a.857.857,0,0,0-.278.452,7.43,7.43,0,0,0-.139,1.357c-.07,1.206-.07,2.009-.07,2.412,0,1.558.139,2.563.487,2.864a.711.711,0,0,0,.278-.4,7.571,7.571,0,0,0,.139-1.406c.069-1.255.139-2.06.139-2.461C273.439,639.96,273.231,639.056,272.883,638.754Zm-39.813-.2a2.241,2.241,0,0,0-.347.6,2.737,2.737,0,0,0-.209,1.106v1.355a1.261,1.261,0,0,0,.764-.552,2.492,2.492,0,0,0,.278-1.206A1.639,1.639,0,0,0,233.071,638.553Zm-52.606.425a1.564,1.564,0,0,0-.421.37,3.192,3.192,0,0,0-.2.26,5.752,5.752,0,0,0-.206,1.811c0,.063,0,.131,0,.2v1.909a5.64,5.64,0,0,0,.278,2.363c.139.2.208.251.347.251a.642.642,0,0,0,.347-.1V638.9Q180.535,638.939,180.464,638.979Zm0,0a1.564,1.564,0,0,0-.421.37,3.192,3.192,0,0,0-.2.26,5.752,5.752,0,0,0-.206,1.811c0,.063,0,.131,0,.2v1.909a5.64,5.64,0,0,0,.278,2.363c.139.2.208.251.347.251a.642.642,0,0,0,.347-.1V638.9Q180.535,638.939,180.464,638.979Zm52.606-.425a2.241,2.241,0,0,0-.347.6,2.737,2.737,0,0,0-.209,1.106v1.355a1.261,1.261,0,0,0,.764-.552,2.492,2.492,0,0,0,.278-1.206A1.639,1.639,0,0,0,233.071,638.553Zm39.813.2a.857.857,0,0,0-.278.452,7.43,7.43,0,0,0-.139,1.357c-.07,1.206-.07,2.009-.07,2.412,0,1.558.139,2.563.487,2.864a.711.711,0,0,0,.278-.4,7.571,7.571,0,0,0,.139-1.406c.069-1.255.139-2.06.139-2.461C273.439,639.96,273.231,639.056,272.883,638.754Zm0,0a.857.857,0,0,0-.278.452,7.43,7.43,0,0,0-.139,1.357c-.07,1.206-.07,2.009-.07,2.412,0,1.558.139,2.563.487,2.864a.711.711,0,0,0,.278-.4,7.571,7.571,0,0,0,.139-1.406c.069-1.255.139-2.06.139-2.461C273.439,639.96,273.231,639.056,272.883,638.754Zm-39.813-.2a2.241,2.241,0,0,0-.347.6,2.737,2.737,0,0,0-.209,1.106v1.355a1.261,1.261,0,0,0,.764-.552,2.492,2.492,0,0,0,.278-1.206A1.639,1.639,0,0,0,233.071,638.553Zm-52.606.425a1.564,1.564,0,0,0-.421.37,3.192,3.192,0,0,0-.2.26,5.752,5.752,0,0,0-.206,1.811c0,.063,0,.131,0,.2v1.909a5.64,5.64,0,0,0,.278,2.363c.139.2.208.251.347.251a.642.642,0,0,0,.347-.1V638.9Q180.535,638.939,180.464,638.979Zm0,0a1.564,1.564,0,0,0-.421.37,3.192,3.192,0,0,0-.2.26,5.752,5.752,0,0,0-.206,1.811c0,.063,0,.131,0,.2v1.909a5.64,5.64,0,0,0,.278,2.363c.139.2.208.251.347.251a.642.642,0,0,0,.347-.1V638.9Q180.535,638.939,180.464,638.979Zm52.606-.425a2.241,2.241,0,0,0-.347.6,2.737,2.737,0,0,0-.209,1.106v1.355a1.261,1.261,0,0,0,.764-.552,2.492,2.492,0,0,0,.278-1.206A1.639,1.639,0,0,0,233.071,638.553Zm39.813.2a.857.857,0,0,0-.278.452,7.43,7.43,0,0,0-.139,1.357c-.07,1.206-.07,2.009-.07,2.412,0,1.558.139,2.563.487,2.864a.711.711,0,0,0,.278-.4,7.571,7.571,0,0,0,.139-1.406c.069-1.255.139-2.06.139-2.461C273.439,639.96,273.231,639.056,272.883,638.754Zm0,0a.857.857,0,0,0-.278.452,7.43,7.43,0,0,0-.139,1.357c-.07,1.206-.07,2.009-.07,2.412,0,1.558.139,2.563.487,2.864a.711.711,0,0,0,.278-.4,7.571,7.571,0,0,0,.139-1.406c.069-1.255.139-2.06.139-2.461C273.439,639.96,273.231,639.056,272.883,638.754Zm-39.813-.2a2.241,2.241,0,0,0-.347.6,2.737,2.737,0,0,0-.209,1.106v1.355a1.261,1.261,0,0,0,.764-.552,2.492,2.492,0,0,0,.278-1.206A1.639,1.639,0,0,0,233.071,638.553Zm-52.606.425a1.564,1.564,0,0,0-.421.37,3.192,3.192,0,0,0-.2.26,5.752,5.752,0,0,0-.206,1.811c0,.063,0,.131,0,.2v1.909a5.64,5.64,0,0,0,.278,2.363c.139.2.208.251.347.251a.642.642,0,0,0,.347-.1V638.9Q180.535,638.939,180.464,638.979Zm0,0a1.564,1.564,0,0,0-.421.37,3.192,3.192,0,0,0-.2.26,5.752,5.752,0,0,0-.206,1.811c0,.063,0,.131,0,.2v1.909a5.64,5.64,0,0,0,.278,2.363c.139.2.208.251.347.251a.642.642,0,0,0,.347-.1V638.9Q180.535,638.939,180.464,638.979Zm52.606-.425a2.241,2.241,0,0,0-.347.6,2.737,2.737,0,0,0-.209,1.106v1.355a1.261,1.261,0,0,0,.764-.552,2.492,2.492,0,0,0,.278-1.206A1.639,1.639,0,0,0,233.071,638.553Zm39.813.2a.857.857,0,0,0-.278.452,7.43,7.43,0,0,0-.139,1.357c-.07,1.206-.07,2.009-.07,2.412,0,1.558.139,2.563.487,2.864a.711.711,0,0,0,.278-.4,7.571,7.571,0,0,0,.139-1.406c.069-1.255.139-2.06.139-2.461C273.439,639.96,273.231,639.056,272.883,638.754Zm0,0a.857.857,0,0,0-.278.452,7.43,7.43,0,0,0-.139,1.357c-.07,1.206-.07,2.009-.07,2.412,0,1.558.139,2.563.487,2.864a.711.711,0,0,0,.278-.4,7.571,7.571,0,0,0,.139-1.406c.069-1.255.139-2.06.139-2.461C273.439,639.96,273.231,639.056,272.883,638.754Zm-39.813-.2a2.241,2.241,0,0,0-.347.6,2.737,2.737,0,0,0-.209,1.106v1.355a1.261,1.261,0,0,0,.764-.552,2.492,2.492,0,0,0,.278-1.206A1.639,1.639,0,0,0,233.071,638.553Zm-52.606.425a1.564,1.564,0,0,0-.421.37,3.192,3.192,0,0,0-.2.26,5.752,5.752,0,0,0-.206,1.811c0,.063,0,.131,0,.2v1.909a5.64,5.64,0,0,0,.278,2.363c.139.2.208.251.347.251a.642.642,0,0,0,.347-.1V638.9Q180.535,638.939,180.464,638.979Zm0,0a1.564,1.564,0,0,0-.421.37,3.192,3.192,0,0,0-.2.26,5.752,5.752,0,0,0-.206,1.811c0,.063,0,.131,0,.2v1.909a5.64,5.64,0,0,0,.278,2.363c.139.2.208.251.347.251a.642.642,0,0,0,.347-.1V638.9Q180.535,638.939,180.464,638.979Zm52.606-.425a2.241,2.241,0,0,0-.347.6,2.737,2.737,0,0,0-.209,1.106v1.355a1.261,1.261,0,0,0,.764-.552,2.492,2.492,0,0,0,.278-1.206A1.639,1.639,0,0,0,233.071,638.553Zm39.813.2a.857.857,0,0,0-.278.452,7.43,7.43,0,0,0-.139,1.357c-.07,1.206-.07,2.009-.07,2.412,0,1.558.139,2.563.487,2.864a.711.711,0,0,0,.278-.4,7.571,7.571,0,0,0,.139-1.406c.069-1.255.139-2.06.139-2.461C273.439,639.96,273.231,639.056,272.883,638.754Zm0,0a.857.857,0,0,0-.278.452,7.43,7.43,0,0,0-.139,1.357c-.07,1.206-.07,2.009-.07,2.412,0,1.558.139,2.563.487,2.864a.711.711,0,0,0,.278-.4,7.571,7.571,0,0,0,.139-1.406c.069-1.255.139-2.06.139-2.461C273.439,639.96,273.231,639.056,272.883,638.754Zm-39.813-.2a2.241,2.241,0,0,0-.347.6,2.737,2.737,0,0,0-.209,1.106v1.355a1.261,1.261,0,0,0,.764-.552,2.492,2.492,0,0,0,.278-1.206A1.639,1.639,0,0,0,233.071,638.553Zm-52.606.425a1.564,1.564,0,0,0-.421.37,3.192,3.192,0,0,0-.2.26,5.752,5.752,0,0,0-.206,1.811c0,.063,0,.131,0,.2v1.909a5.64,5.64,0,0,0,.278,2.363c.139.2.208.251.347.251a.642.642,0,0,0,.347-.1V638.9Q180.535,638.939,180.464,638.979Zm0,0a1.564,1.564,0,0,0-.421.37,3.192,3.192,0,0,0-.2.26,5.752,5.752,0,0,0-.206,1.811c0,.063,0,.131,0,.2v1.909a5.64,5.64,0,0,0,.278,2.363c.139.2.208.251.347.251a.642.642,0,0,0,.347-.1V638.9Q180.535,638.939,180.464,638.979Zm52.606-.425a2.241,2.241,0,0,0-.347.6,2.737,2.737,0,0,0-.209,1.106v1.355a1.261,1.261,0,0,0,.764-.552,2.492,2.492,0,0,0,.278-1.206A1.639,1.639,0,0,0,233.071,638.553Zm39.813.2a.857.857,0,0,0-.278.452,7.43,7.43,0,0,0-.139,1.357c-.07,1.206-.07,2.009-.07,2.412,0,1.558.139,2.563.487,2.864a.711.711,0,0,0,.278-.4,7.571,7.571,0,0,0,.139-1.406c.069-1.255.139-2.06.139-2.461C273.439,639.96,273.231,639.056,272.883,638.754Zm0,0a.857.857,0,0,0-.278.452,7.43,7.43,0,0,0-.139,1.357c-.07,1.206-.07,2.009-.07,2.412,0,1.558.139,2.563.487,2.864a.711.711,0,0,0,.278-.4,7.571,7.571,0,0,0,.139-1.406c.069-1.255.139-2.06.139-2.461C273.439,639.96,273.231,639.056,272.883,638.754Zm-39.813-.2a2.241,2.241,0,0,0-.347.6,2.737,2.737,0,0,0-.209,1.106v1.355a1.261,1.261,0,0,0,.764-.552,2.492,2.492,0,0,0,.278-1.206A1.639,1.639,0,0,0,233.071,638.553Zm-52.606.425a1.564,1.564,0,0,0-.421.37,3.192,3.192,0,0,0-.2.26,5.752,5.752,0,0,0-.206,1.811c0,.063,0,.131,0,.2v1.909a5.64,5.64,0,0,0,.278,2.363c.139.2.208.251.347.251a.642.642,0,0,0,.347-.1V638.9Q180.535,638.939,180.464,638.979Zm0,0a1.564,1.564,0,0,0-.421.37,3.192,3.192,0,0,0-.2.26,5.752,5.752,0,0,0-.206,1.811c0,.063,0,.131,0,.2v1.909a5.64,5.64,0,0,0,.278,2.363c.139.2.208.251.347.251a.642.642,0,0,0,.347-.1V638.9Q180.535,638.939,180.464,638.979Zm52.606-.425a2.241,2.241,0,0,0-.347.6,2.737,2.737,0,0,0-.209,1.106v1.355a1.261,1.261,0,0,0,.764-.552,2.492,2.492,0,0,0,.278-1.206A1.639,1.639,0,0,0,233.071,638.553Zm39.813.2a.857.857,0,0,0-.278.452,7.43,7.43,0,0,0-.139,1.357c-.07,1.206-.07,2.009-.07,2.412,0,1.558.139,2.563.487,2.864a.711.711,0,0,0,.278-.4,7.571,7.571,0,0,0,.139-1.406c.069-1.255.139-2.06.139-2.461C273.439,639.96,273.231,639.056,272.883,638.754Zm0,0a.857.857,0,0,0-.278.452,7.43,7.43,0,0,0-.139,1.357c-.07,1.206-.07,2.009-.07,2.412,0,1.558.139,2.563.487,2.864a.711.711,0,0,0,.278-.4,7.571,7.571,0,0,0,.139-1.406c.069-1.255.139-2.06.139-2.461C273.439,639.96,273.231,639.056,272.883,638.754Zm-39.813-.2a2.241,2.241,0,0,0-.347.6,2.737,2.737,0,0,0-.209,1.106v1.355a1.261,1.261,0,0,0,.764-.552,2.492,2.492,0,0,0,.278-1.206A1.639,1.639,0,0,0,233.071,638.553Zm-52.606.425a1.564,1.564,0,0,0-.421.37,3.192,3.192,0,0,0-.2.26,5.752,5.752,0,0,0-.206,1.811c0,.063,0,.131,0,.2v1.909a5.64,5.64,0,0,0,.278,2.363c.139.2.208.251.347.251a.642.642,0,0,0,.347-.1V638.9Q180.535,638.939,180.464,638.979Zm0,0a1.564,1.564,0,0,0-.421.37,3.192,3.192,0,0,0-.2.26,5.752,5.752,0,0,0-.206,1.811c0,.063,0,.131,0,.2v1.909a5.64,5.64,0,0,0,.278,2.363c.139.2.208.251.347.251a.642.642,0,0,0,.347-.1V638.9Q180.535,638.939,180.464,638.979Zm52.606-.425a2.241,2.241,0,0,0-.347.6,2.737,2.737,0,0,0-.209,1.106v1.355a1.261,1.261,0,0,0,.764-.552,2.492,2.492,0,0,0,.278-1.206A1.639,1.639,0,0,0,233.071,638.553Zm39.813.2a.857.857,0,0,0-.278.452,7.43,7.43,0,0,0-.139,1.357c-.07,1.206-.07,2.009-.07,2.412,0,1.558.139,2.563.487,2.864a.711.711,0,0,0,.278-.4,7.571,7.571,0,0,0,.139-1.406c.069-1.255.139-2.06.139-2.461C273.439,639.96,273.231,639.056,272.883,638.754Zm0,0a.857.857,0,0,0-.278.452,7.43,7.43,0,0,0-.139,1.357c-.07,1.206-.07,2.009-.07,2.412,0,1.558.139,2.563.487,2.864a.711.711,0,0,0,.278-.4,7.571,7.571,0,0,0,.139-1.406c.069-1.255.139-2.06.139-2.461C273.439,639.96,273.231,639.056,272.883,638.754Zm-39.813-.2a2.241,2.241,0,0,0-.347.6,2.737,2.737,0,0,0-.209,1.106v1.355a1.261,1.261,0,0,0,.764-.552,2.492,2.492,0,0,0,.278-1.206A1.639,1.639,0,0,0,233.071,638.553Zm-52.606.425a1.564,1.564,0,0,0-.421.37,3.192,3.192,0,0,0-.2.26,5.752,5.752,0,0,0-.206,1.811c0,.063,0,.131,0,.2v1.909a5.64,5.64,0,0,0,.278,2.363c.139.2.208.251.347.251a.642.642,0,0,0,.347-.1V638.9Q180.535,638.939,180.464,638.979Zm0,0a1.564,1.564,0,0,0-.421.37,3.192,3.192,0,0,0-.2.26,5.752,5.752,0,0,0-.206,1.811c0,.063,0,.131,0,.2v1.909a5.64,5.64,0,0,0,.278,2.363c.139.2.208.251.347.251a.642.642,0,0,0,.347-.1V638.9Q180.535,638.939,180.464,638.979Zm52.606-.425a2.241,2.241,0,0,0-.347.6,2.737,2.737,0,0,0-.209,1.106v1.355a1.261,1.261,0,0,0,.764-.552,2.492,2.492,0,0,0,.278-1.206A1.639,1.639,0,0,0,233.071,638.553Zm39.813.2a.857.857,0,0,0-.278.452,7.43,7.43,0,0,0-.139,1.357c-.07,1.206-.07,2.009-.07,2.412,0,1.558.139,2.563.487,2.864a.711.711,0,0,0,.278-.4,7.571,7.571,0,0,0,.139-1.406c.069-1.255.139-2.06.139-2.461C273.439,639.96,273.231,639.056,272.883,638.754Zm0,0a.857.857,0,0,0-.278.452,7.43,7.43,0,0,0-.139,1.357c-.07,1.206-.07,2.009-.07,2.412,0,1.558.139,2.563.487,2.864a.711.711,0,0,0,.278-.4,7.571,7.571,0,0,0,.139-1.406c.069-1.255.139-2.06.139-2.461C273.439,639.96,273.231,639.056,272.883,638.754Zm-39.813-.2a2.241,2.241,0,0,0-.347.6,2.737,2.737,0,0,0-.209,1.106v1.355a1.261,1.261,0,0,0,.764-.552,2.492,2.492,0,0,0,.278-1.206A1.639,1.639,0,0,0,233.071,638.553Zm-52.606.425a1.564,1.564,0,0,0-.421.37,3.192,3.192,0,0,0-.2.26,5.752,5.752,0,0,0-.206,1.811c0,.063,0,.131,0,.2v1.909a5.64,5.64,0,0,0,.278,2.363c.139.2.208.251.347.251a.642.642,0,0,0,.347-.1V638.9Q180.535,638.939,180.464,638.979Zm0,0a1.564,1.564,0,0,0-.421.37,3.192,3.192,0,0,0-.2.26,5.752,5.752,0,0,0-.206,1.811c0,.063,0,.131,0,.2v1.909a5.64,5.64,0,0,0,.278,2.363c.139.2.208.251.347.251a.642.642,0,0,0,.347-.1V638.9Q180.535,638.939,180.464,638.979Zm52.606-.425a2.241,2.241,0,0,0-.347.6,2.737,2.737,0,0,0-.209,1.106v1.355a1.261,1.261,0,0,0,.764-.552,2.492,2.492,0,0,0,.278-1.206A1.639,1.639,0,0,0,233.071,638.553Zm0,0a2.241,2.241,0,0,0-.347.6,2.737,2.737,0,0,0-.209,1.106v1.355a1.261,1.261,0,0,0,.764-.552,2.492,2.492,0,0,0,.278-1.206A1.639,1.639,0,0,0,233.071,638.553Zm-52.606.425a1.564,1.564,0,0,0-.421.37,3.192,3.192,0,0,0-.2.26,5.752,5.752,0,0,0-.206,1.811c0,.063,0,.131,0,.2v1.909a5.64,5.64,0,0,0,.278,2.363c.139.2.208.251.347.251a.642.642,0,0,0,.347-.1V638.9Q180.535,638.939,180.464,638.979Zm0,0a1.564,1.564,0,0,0-.421.37,3.192,3.192,0,0,0-.2.26,5.752,5.752,0,0,0-.206,1.811c0,.063,0,.131,0,.2v1.909a5.64,5.64,0,0,0,.278,2.363c.139.2.208.251.347.251a.642.642,0,0,0,.347-.1V638.9Q180.535,638.939,180.464,638.979Zm0,0a1.564,1.564,0,0,0-.421.37,3.192,3.192,0,0,0-.2.26,5.752,5.752,0,0,0-.206,1.811c0,.063,0,.131,0,.2v1.909a5.64,5.64,0,0,0,.278,2.363c.139.2.208.251.347.251a.642.642,0,0,0,.347-.1V638.9Q180.535,638.939,180.464,638.979Zm0,0a1.564,1.564,0,0,0-.421.37,3.192,3.192,0,0,0-.2.26,5.752,5.752,0,0,0-.206,1.811c0,.063,0,.131,0,.2v1.909a5.64,5.64,0,0,0,.278,2.363c.139.2.208.251.347.251a.642.642,0,0,0,.347-.1V638.9Q180.535,638.939,180.464,638.979Zm0,0a1.564,1.564,0,0,0-.421.37,3.192,3.192,0,0,0-.2.26,5.752,5.752,0,0,0-.206,1.811c0,.063,0,.131,0,.2v1.909a5.64,5.64,0,0,0,.278,2.363c.139.2.208.251.347.251a.642.642,0,0,0,.347-.1V638.9Q180.535,638.939,180.464,638.979Z" transform="translate(-151.98 -630.023)" fill="#fff" fill-rule="evenodd"/>
      <path id="Caminho_166" data-name="Caminho 166" d="M309.172,723.052H149.55c.133-.249.3-.534.5-.842H308.659C308.878,722.543,309.056,722.829,309.172,723.052Z" transform="translate(-148.861 -701.722)" fill="#fff" fill-rule="evenodd"/>
    </g>
    <path id="Caminho_168" data-name="Caminho 168" d="M315.18,398.992V398.2c2.888-.882,4.814-2.274,5.905-4.177,1.027-1.949,1.54-5.059,1.54-9.283v-21.4c0-4.549-.77-7.566-2.311-9a10.314,10.314,0,0,0-5.135-2.738v-.789l12.324.511v47.112H323.91c-2.246,0-5.135.186-8.729.557Zm29.59-48.179Zm26.059,43.445a22.872,22.872,0,0,0-1.926,4.734,86.143,86.143,0,0,0-10.141-.557H331.74V351.324c2.632-.046,5.584-.186,8.858-.371,2.632-.093,4.044-.139,4.172-.139v.789c-2.952.6-5.071,1.764-6.354,3.527-1.22,1.81-1.861,4.5-1.861,8.076v19.448a48.077,48.077,0,0,0,.578,7.844c.385,2.413.77,3.806,1.219,4.131.449.371,1.6.557,3.4.557h12.26a30.915,30.915,0,0,0,10.783-1.578,15.479,15.479,0,0,0,7.446-6.173h1.22A35.964,35.964,0,0,1,370.829,394.258Zm-89.282-19.17c6.675,1.532,11.489,3.249,14.442,5.106,2.888,1.857,4.3,4.27,4.3,7.334q0,4.526-4.429,8.216c-3.017,2.46-7.51,3.713-13.479,3.713a66.988,66.988,0,0,1-10.013-1.068,77.25,77.25,0,0,0-8.472-.928l-.385-.371a16.7,16.7,0,0,0,.064-1.949c0-.928-.128-2.414-.321-4.409a35.408,35.408,0,0,1-.321-4.5,16.725,16.725,0,0,1,.257-3.3h1.348c.257,3.806,2.246,6.962,5.969,9.422a22.159,22.159,0,0,0,12.645,3.667,15.453,15.453,0,0,0,8.922-2.367c2.311-1.578,3.466-3.481,3.466-5.663a5.984,5.984,0,0,0-3.338-5.431c-2.118-1.253-6.354-2.646-12.645-4.224a107.934,107.934,0,0,1-10.847-3.156,14.648,14.648,0,0,1-5.841-3.992,8.284,8.284,0,0,1-2.247-5.709,10.4,10.4,0,0,1,3.081-6.962,8.781,8.781,0,0,0-.706,3.063,9.234,9.234,0,0,0,2.182,6.127,13.924,13.924,0,0,0,5.456,4.084A73.642,73.642,0,0,0,281.547,375.088ZM302.408,393a8.164,8.164,0,0,0,1.99-5.895,10.163,10.163,0,0,0-2.118-6.359,15.989,15.989,0,0,0-5.648-4.456,53.8,53.8,0,0,0-11.04-3.62c-7.638-1.949-12.645-3.62-15.019-4.966a7.091,7.091,0,0,1-3.466-6.545c0-3.388,1.8-6.08,5.327-7.983,3.595-1.9,8.665-2.831,15.276-2.831a92.143,92.143,0,0,1,16.431,1.81v.279l.128,1.717c0,.882,0,1.949.064,3.2q.193,2.3.193,4.038a24.547,24.547,0,0,1-.128,2.878h-1.22c0-3.481-1.8-6.034-5.392-7.7a29.4,29.4,0,0,0-12.58-2.46,21.778,21.778,0,0,0-9.692,1.9c-2.568,1.3-3.851,2.831-3.851,4.642,0,1.9.963,3.388,3.017,4.5,2.118,1.16,6.226,2.6,12.452,4.224a110.033,110.033,0,0,1,12.067,3.713,16.341,16.341,0,0,1,6.162,4.5,10.314,10.314,0,0,1,2.439,6.637Q307.8,389.8,302.408,393Z" transform="translate(-91.05 -123.602)" fill="#fff" fill-rule="evenodd"/>
  </g>
</svg>
