<svg xmlns="http://www.w3.org/2000/svg" width="331.707" height="73.969" viewBox="0 0 331.707 73.969">
  <g id="logo" transform="translate(-87.856 -333.718)">
    <g id="Grupo_91" data-name="Grupo 91" transform="translate(87.856 347.138)">
      <path id="Caminho_272" data-name="Caminho 272" d="M96.752,404.927a3.243,3.243,0,0,1-3.171-3.922l4.559-21.324c-.055,0-.112,0-.168,0a10.936,10.936,0,0,1-7.271-2.218c-1.888-1.6-2.846-4.044-2.846-7.257a15.333,15.333,0,0,1,4.166-10.121,29.96,29.96,0,0,1,21.622-9.821,21.812,21.812,0,0,1,9.95,2.088,14.991,14.991,0,0,1,6.384,5.869,15.758,15.758,0,0,1,2.067,7.939,19.516,19.516,0,0,1-2.708,9.769,21.513,21.513,0,0,1-16.773,10.584l-3.391,15.844A3.244,3.244,0,0,1,106,404.927ZM115.1,374.643a14.423,14.423,0,0,0,2.1-3.609,15.384,15.384,0,0,0,1.232-5.832,7.464,7.464,0,0,0-.632-3.248Z" transform="translate(-87.856 -350.269)" fill="#fff"/>
      <path id="Caminho_273" data-name="Caminho 273" d="M129.559,366.922a12.5,12.5,0,0,0-1.638-6.326A11.754,11.754,0,0,0,122.879,356a18.567,18.567,0,0,0-8.478-1.734,26.73,26.73,0,0,0-19.173,8.7,12.145,12.145,0,0,0-3.371,8q0,3.34,1.7,4.785a7.843,7.843,0,0,0,5.171,1.446,5.636,5.636,0,0,0-.45-1.06,8.423,8.423,0,0,1-.449-3.308q0-7.385,4.4-11.5t12.235-4.111a7.259,7.259,0,0,1,5.973,2.441,9.643,9.643,0,0,1,1.991,6.294,18.52,18.52,0,0,1-1.477,7.065,17.023,17.023,0,0,1-4.078,6.037,9.34,9.34,0,0,1-5.685,2.7l4.56-21.453-9.505,1.285-8.735,40.849h9.249l3.918-18.306H111a18.632,18.632,0,0,0,9.762-2.537,17.936,17.936,0,0,0,6.519-6.519A16.231,16.231,0,0,0,129.559,366.922Z" transform="translate(-88.613 -351.026)" fill="#002b61"/>
      <path id="Caminho_274" data-name="Caminho 274" d="M156.255,409.058a9.2,9.2,0,0,1-6.606-2.532c-.206-.2-.4-.414-.589-.635a11.733,11.733,0,0,1-2.167,1.5,13.685,13.685,0,0,1-6.5,1.665,9.954,9.954,0,0,1-7.291-2.9c-1.875-1.906-2.826-4.617-2.826-8.054a25.162,25.162,0,0,1,.577-4.811l4.375-20.655a3.243,3.243,0,0,1,3.173-2.571h9.249a3.243,3.243,0,0,1,3.222,3.612l.221-1.041a3.244,3.244,0,0,1,3.173-2.571h9.249a3.244,3.244,0,0,1,3.173,3.915l-4.624,21.838c-.012.055-.025.111-.04.166-.025.092-.047.188-.065.286l.095-.035a3.244,3.244,0,0,1,4.566,3.212,9.97,9.97,0,0,1-3.4,7.175A10.527,10.527,0,0,1,156.255,409.058Z" transform="translate(-95.881 -354.015)" fill="#fff"/>
      <path id="Caminho_275" data-name="Caminho 275" d="M163.532,400.181a5.149,5.149,0,0,1-1.51.161A3.008,3.008,0,0,1,160,399.8a2.353,2.353,0,0,1-.611-1.831,7.961,7.961,0,0,1,.257-2.055l4.625-21.837h-9.249l-4.368,20.617a11.181,11.181,0,0,1-2.055,4.143,3.922,3.922,0,0,1-3.084,1.509q-1.926,0-1.927-2.826a6.623,6.623,0,0,1,.192-1.606l4.625-21.837h-9.249l-4.368,20.617a22.379,22.379,0,0,0-.513,4.175q0,3.854,1.895,5.78a6.666,6.666,0,0,0,4.978,1.927,10.446,10.446,0,0,0,4.978-1.284,12.977,12.977,0,0,0,4.592-4.817,7.18,7.18,0,0,0,1.959,4.5,5.928,5.928,0,0,0,4.336,1.605,7.338,7.338,0,0,0,4.881-1.67,6.831,6.831,0,0,0,2.248-4.945A5.935,5.935,0,0,1,163.532,400.181Z" transform="translate(-96.638 -354.772)" fill="#002b61"/>
      <path id="Caminho_276" data-name="Caminho 276" d="M169.258,408.673a3.243,3.243,0,0,1-3.173-3.916l6.808-32.114a3.244,3.244,0,0,1,3.173-2.571h9.249a3.245,3.245,0,0,1,2.354,1.012,10.7,10.7,0,0,1,4.583-1.012,7.234,7.234,0,0,1,5.724,2.568,8.305,8.305,0,0,1,1.951,5.493,8.15,8.15,0,0,1-2.008,5.394,7.439,7.439,0,0,1-5.859,2.537,5.208,5.208,0,0,1-4.534-2.032,6.65,6.65,0,0,1-.765-1.423l-.163.135L181.68,406.1a3.244,3.244,0,0,1-3.174,2.575Z" transform="translate(-102.642 -354.015)" fill="#fff"/>
      <path id="Caminho_277" data-name="Caminho 277" d="M197.44,378.89a5.117,5.117,0,0,0-1.189-3.4,4.015,4.015,0,0,0-3.243-1.412,7.472,7.472,0,0,0-3.821,1.027,25.713,25.713,0,0,0-3.95,2.955l.835-3.982h-9.249l-6.808,32.114h9.249L184.4,381.78a15.632,15.632,0,0,1,2.408-1.894,4.436,4.436,0,0,1,2.28-.547.717.717,0,0,1,.706.385,5.911,5.911,0,0,1,.386,1.221,5.122,5.122,0,0,0,.739,1.959,2.2,2.2,0,0,0,1.894.674,4.259,4.259,0,0,0,3.4-1.412A4.865,4.865,0,0,0,197.44,378.89Z" transform="translate(-103.399 -354.772)" fill="#002b61"/>
      <path id="Caminho_278" data-name="Caminho 278" d="M208.971,368.894a3.243,3.243,0,0,1-2.922-4.65l5.844-12.14a3.243,3.243,0,0,1,2.922-1.836h6.744a3.243,3.243,0,0,1,2.732,4.991l-7.772,12.14a3.243,3.243,0,0,1-2.732,1.494Z" transform="translate(-110.155 -350.269)" fill="#fff"/>
      <path id="Caminho_279" data-name="Caminho 279" d="M222.316,354.269h-6.744l-5.845,12.139h4.817Z" transform="translate(-110.912 -351.026)" fill="#002b61"/>
      <path id="Caminho_280" data-name="Caminho 280" d="M206.416,409.058a9.952,9.952,0,0,1-7.29-2.9c-1.874-1.9-2.825-4.614-2.825-8.053a25.154,25.154,0,0,1,.576-4.811l4.375-20.655a3.244,3.244,0,0,1,3.173-2.571h9.249a3.244,3.244,0,0,1,3.173,3.915l-4.625,21.838c-.011.055-.024.111-.039.166-.023.083-.043.169-.06.258.029-.01.058-.02.084-.032a3.244,3.244,0,0,1,4.508,3.242,9.962,9.962,0,0,1-3.427,7.137A10.389,10.389,0,0,1,206.416,409.058Z" transform="translate(-108.372 -354.015)" fill="#fff"/>
      <path id="Caminho_281" data-name="Caminho 281" d="M210.16,399.8a2.353,2.353,0,0,1-.611-1.831,7.961,7.961,0,0,1,.257-2.055l4.625-21.837h-9.249l-4.368,20.617a22.308,22.308,0,0,0-.513,4.175q0,3.854,1.894,5.78a6.668,6.668,0,0,0,4.978,1.927,7.2,7.2,0,0,0,4.785-1.7,6.813,6.813,0,0,0,2.28-4.914,5.174,5.174,0,0,1-2.055.385A3.008,3.008,0,0,1,210.16,399.8Z" transform="translate(-109.129 -354.772)" fill="#002b61"/>
      <path id="Caminho_282" data-name="Caminho 282" d="M226.308,408.593a13.729,13.729,0,0,1-6.79-1.6,11.025,11.025,0,0,1-4.411-4.365,11.434,11.434,0,0,1-1.421-5.5,9.991,9.991,0,0,1,1.5-5.425,9.7,9.7,0,0,1,2.733-2.883,78.782,78.782,0,0,0,3.78-7.974c1.2-2.955,2.357-6.209,3.443-9.674a3.243,3.243,0,0,1,2.66-2.244l9.506-1.284a3.244,3.244,0,0,1,3.675,3.088c.21,5.4.575,11.343,1.084,17.656.222,2.681.332,4.6.332,5.848a13.2,13.2,0,0,1-2.7,8.441,14.413,14.413,0,0,1-6.318,4.617A20.175,20.175,0,0,1,226.308,408.593Z" transform="translate(-111.661 -353.551)" fill="#fff"/>
      <path id="Caminho_283" data-name="Caminho 283" d="M238.5,371.617l-9.506,1.284q-1.671,5.332-3.533,9.924a81.857,81.857,0,0,1-4.367,9.088,6.118,6.118,0,0,0-2.409,2.281,6.764,6.764,0,0,0-.995,3.693,8.18,8.18,0,0,0,1.027,3.949,7.8,7.8,0,0,0,3.148,3.083,10.491,10.491,0,0,0,5.2,1.189,16.868,16.868,0,0,0,5.941-1.092,11.171,11.171,0,0,0,4.914-3.6A10.007,10.007,0,0,0,239.91,395q0-1.734-.321-5.588Q238.819,379.839,238.5,371.617Zm-9.506,28a5.812,5.812,0,0,1-3.982,1.413,3.718,3.718,0,0,1-2.987-1.092,5.169,5.169,0,0,1-.931-3.4,1.706,1.706,0,0,0,1.734.835,2.526,2.526,0,0,0,2.023-.963,3.326,3.326,0,0,0,.8-2.184,2.429,2.429,0,0,0-1.477-2.248,74.351,74.351,0,0,0,5.2-12.14q.192,2.505.835,9.827a52.385,52.385,0,0,1,.385,5.4Q230.6,398.208,228.992,399.62Z" transform="translate(-112.418 -354.308)" fill="#002b61"/>
      <path id="Caminho_284" data-name="Caminho 284" d="M254.68,408.593a13.729,13.729,0,0,1-6.79-1.6,11.024,11.024,0,0,1-4.41-4.365,11.426,11.426,0,0,1-1.421-5.5,9.991,9.991,0,0,1,1.5-5.425,9.7,9.7,0,0,1,2.733-2.883,78.788,78.788,0,0,0,3.78-7.974c1.2-2.955,2.357-6.209,3.443-9.674a3.243,3.243,0,0,1,2.66-2.244l9.506-1.284a3.244,3.244,0,0,1,3.675,3.088c.21,5.4.575,11.343,1.084,17.656.222,2.681.332,4.6.332,5.848a13.2,13.2,0,0,1-2.7,8.441,14.413,14.413,0,0,1-6.318,4.617A20.175,20.175,0,0,1,254.68,408.593Z" transform="translate(-117.029 -353.551)" fill="#fff"/>
      <path id="Caminho_285" data-name="Caminho 285" d="M266.87,371.617l-9.506,1.284q-1.671,5.332-3.533,9.924a81.866,81.866,0,0,1-4.367,9.088,6.117,6.117,0,0,0-2.409,2.281,6.764,6.764,0,0,0-.995,3.693,8.18,8.18,0,0,0,1.027,3.949,7.8,7.8,0,0,0,3.148,3.083,10.491,10.491,0,0,0,5.2,1.189,16.868,16.868,0,0,0,5.941-1.092,11.171,11.171,0,0,0,4.914-3.6A10.008,10.008,0,0,0,268.283,395q0-1.734-.321-5.588Q267.191,379.839,266.87,371.617Zm-9.506,28a5.812,5.812,0,0,1-3.982,1.413,3.718,3.718,0,0,1-2.987-1.092,5.169,5.169,0,0,1-.931-3.4,1.706,1.706,0,0,0,1.734.835,2.526,2.526,0,0,0,2.023-.963,3.321,3.321,0,0,0,.8-2.184,2.429,2.429,0,0,0-1.477-2.248,74.28,74.28,0,0,0,5.2-12.14q.192,2.505.835,9.827a52.392,52.392,0,0,1,.385,5.4Q258.97,398.208,257.364,399.62Z" transform="translate(-117.785 -354.308)" fill="#002b61"/>
      <path id="Caminho_286" data-name="Caminho 286" d="M288.254,369.9a8.287,8.287,0,0,1-8.317-8.317,8.27,8.27,0,0,1,2.4-5.9,8.1,8.1,0,0,1,5.913-2.484,8.4,8.4,0,0,1,8.382,8.381,8.1,8.1,0,0,1-2.484,5.914A8.269,8.269,0,0,1,288.254,369.9Z" transform="translate(-124.194 -350.824)" fill="#fff"/>
      <path id="Caminho_287" data-name="Caminho 287" d="M289.011,367.412a5,5,0,0,0,3.628-1.477,4.845,4.845,0,0,0,1.51-3.6,5.153,5.153,0,0,0-5.138-5.138,4.844,4.844,0,0,0-3.6,1.509,5,5,0,0,0-1.477,3.629,5.044,5.044,0,0,0,5.074,5.074Z" transform="translate(-124.951 -351.58)" fill="#002b61"/>
      <path id="Caminho_288" data-name="Caminho 288" d="M282.449,409.058a9.953,9.953,0,0,1-7.291-2.9c-1.875-1.906-2.826-4.617-2.826-8.054a25.154,25.154,0,0,1,.576-4.811l4.375-20.655a3.245,3.245,0,0,1,3.174-2.571h9.249a3.244,3.244,0,0,1,3.173,3.915l-4.625,21.838c-.011.054-.025.109-.039.162-.023.085-.043.173-.06.262q.044-.015.083-.032a3.244,3.244,0,0,1,4.508,3.241,9.962,9.962,0,0,1-3.426,7.137A10.392,10.392,0,0,1,282.449,409.058Z" transform="translate(-122.756 -354.015)" fill="#fff"/>
      <path id="Caminho_289" data-name="Caminho 289" d="M288.215,400.342a3.008,3.008,0,0,1-2.023-.546,2.353,2.353,0,0,1-.611-1.831,7.927,7.927,0,0,1,.257-2.055l4.625-21.837h-9.249l-4.368,20.617a22.322,22.322,0,0,0-.514,4.175q0,3.854,1.895,5.78a6.666,6.666,0,0,0,4.978,1.927,7.2,7.2,0,0,0,4.785-1.7,6.819,6.819,0,0,0,2.28-4.914A5.177,5.177,0,0,1,288.215,400.342Z" transform="translate(-123.512 -354.772)" fill="#002b61"/>
      <path id="Caminho_290" data-name="Caminho 290" d="M332.887,408.983c-4.155,0-6.393-1.823-7.54-3.352a11.625,11.625,0,0,1-2.191-7.149,19.982,19.982,0,0,1,.378-3.653q.331-1.749.695-3.4c.293-1.336.426-1.873.5-2.157q.495-2.173.931-4.288c.122-.594.208-1.09.265-1.5a11.654,11.654,0,0,0-.816,2.055l-4.339,20.491A3.243,3.243,0,0,1,317.6,408.6h-9.249a3.243,3.243,0,0,1-3.222-3.612l-.221,1.041a3.242,3.242,0,0,1-3.173,2.571h-9.249a3.243,3.243,0,0,1-3.173-3.916l6.809-32.114A3.243,3.243,0,0,1,299.3,370h9.248a3.245,3.245,0,0,1,1.99.683,13.185,13.185,0,0,1,5.14-1,9.594,9.594,0,0,1,7.422,2.981,12.643,12.643,0,0,1,8.121-2.916,10.481,10.481,0,0,1,7.414,2.67c1.963,1.832,2.959,4.467,2.959,7.831a24.936,24.936,0,0,1-.511,4.769c-.309,1.566-.755,3.492-1.324,5.729-.33,1.275-.633,2.544-.906,3.783-.167.757-.255,1.3-.3,1.678a3.243,3.243,0,0,1,4.624,3.3,10.484,10.484,0,0,1-3.463,7.035A10.217,10.217,0,0,1,332.887,408.983Z" transform="translate(-125.955 -353.941)" fill="#fff"/>
      <path id="Caminho_291" data-name="Caminho 291" d="M336.6,399.561a3.066,3.066,0,0,1-.578-1.991,14.742,14.742,0,0,1,.418-2.986q.417-1.894.932-3.886.833-3.275,1.284-5.556A21.614,21.614,0,0,0,339.1,381q0-3.661-1.926-5.459a7.323,7.323,0,0,0-5.2-1.8q-5.394,0-8.927,5.459-.963-5.523-6.615-5.523a10.165,10.165,0,0,0-7.836,3.661L309.3,374h-9.249l-6.808,32.114h9.249l4.368-20.617a12.212,12.212,0,0,1,2.087-4.335,3.9,3.9,0,0,1,3.115-1.638q1.928,0,1.927,2.826a6.578,6.578,0,0,1-.193,1.606l-4.689,22.159h9.25l4.366-20.617a12.618,12.618,0,0,1,2.055-4.271,3.713,3.713,0,0,1,2.955-1.638q2.312,0,2.313,3.276a18.484,18.484,0,0,1-.45,3.533q-.45,2.184-.964,4.432-.129.45-.481,2.055t-.675,3.307a16.576,16.576,0,0,0-.322,3.05,8.432,8.432,0,0,0,1.541,5.2q1.542,2.057,4.946,2.055a7.03,7.03,0,0,0,4.721-1.67,7.327,7.327,0,0,0,2.345-4.945,4.109,4.109,0,0,1-2.119.385A2.441,2.441,0,0,1,336.6,399.561Z" transform="translate(-126.712 -354.697)" fill="#002b61"/>
      <path id="Caminho_292" data-name="Caminho 292" d="M376.57,408.983a9.064,9.064,0,0,1-6.52-2.479,9.218,9.218,0,0,1-.7-.749,13.006,13.006,0,0,1-8.648,3.228,11.339,11.339,0,0,1-8.425-3.484c-2.23-2.289-3.36-5.686-3.36-10.1a32.721,32.721,0,0,1,2.087-11.09,26.32,26.32,0,0,1,6.45-10.094,15.647,15.647,0,0,1,11.212-4.539,11.626,11.626,0,0,1,4.353.718,3.233,3.233,0,0,1,1.556-.4h9.249A3.244,3.244,0,0,1,387,373.913l-4.624,21.838c-.012.055-.068.278-.081.336a3.243,3.243,0,0,1,3.716,4.353,20.439,20.439,0,0,1-3.293,6.011A7.874,7.874,0,0,1,376.57,408.983Zm-6.851-28.418a5.821,5.821,0,0,0-1.01,1.162,20.5,20.5,0,0,0-2.755,6.214,25.371,25.371,0,0,0-1.04,6.559,10.5,10.5,0,0,0,.113,1.728,2.723,2.723,0,0,0,.79-.568,4.815,4.815,0,0,0,1.227-2.5Z" transform="translate(-137.245 -353.941)" fill="#fff"/>
      <path id="Caminho_293" data-name="Caminho 293" d="M380.313,399.721a2.356,2.356,0,0,1-.61-1.831,7.927,7.927,0,0,1,.256-2.055L384.583,374h-9.248l-.707,3.4v-.45a2.772,2.772,0,0,0-1.284-2.376,6.883,6.883,0,0,0-3.918-.9,12.452,12.452,0,0,0-8.96,3.628,22.989,22.989,0,0,0-5.652,8.864,29.356,29.356,0,0,0-1.894,9.987q0,5.333,2.44,7.836a8.167,8.167,0,0,0,6.1,2.505q5.651,0,9.57-5.973a7.231,7.231,0,0,0,2.023,4.4,5.9,5.9,0,0,0,4.271,1.574,4.723,4.723,0,0,0,3.726-1.446,17.714,17.714,0,0,0,2.7-5.042,3.2,3.2,0,0,1-1.413.257A3.008,3.008,0,0,1,380.313,399.721Zm-9.345-5.107a7.924,7.924,0,0,1-2.151,4.143,4.64,4.64,0,0,1-3.18,1.509,3.153,3.153,0,0,1-2.279-.9q-.933-.9-.932-4.111a28.44,28.44,0,0,1,1.156-7.418,23.645,23.645,0,0,1,3.211-7.194q2.055-2.986,4.625-2.986a2.4,2.4,0,0,1,1.991.8,2.609,2.609,0,0,1,.642,1.638Z" transform="translate(-138.001 -354.697)" fill="#002b61"/>
    </g>
    <path id="Caminho_294" data-name="Caminho 294" d="M442.514,407.687a37.119,37.119,0,0,1-28.357-61.072,3.244,3.244,0,0,1,5.215,3.833,27.4,27.4,0,0,0,.657,30.308q.061-.885.175-1.811a3.246,3.246,0,0,1,1.9-2.565c-1.674-2.775-2.617-6.782-1.9-12.567a3.246,3.246,0,0,1,1.9-2.565c-1.673-2.775-2.617-6.782-1.9-12.567a3.243,3.243,0,0,1,5.144-2.212A25.975,25.975,0,0,0,433,350.287a21.876,21.876,0,0,1,2.085.765,18.11,18.11,0,0,1-.255-3.017,18.459,18.459,0,0,1,5.4-13,3.243,3.243,0,0,1,4.575,0,18.25,18.25,0,0,1,3.179,4.264l.637-.2.362-1.182a3.246,3.246,0,0,1,3.1-2.291,3.321,3.321,0,0,1,.337.018,3.243,3.243,0,0,1,2.967-1.934h0a4.525,4.525,0,0,1,3.522,8.017,3.281,3.281,0,0,1,.109.835,3.243,3.243,0,0,1-2.291,3.1l-1.182.363-.363,1.182a3.242,3.242,0,0,1-5,1.677,18.288,18.288,0,0,1-.234,2.159,22.123,22.123,0,0,1,2.089-.768,25.978,25.978,0,0,0,7.641-3.816,3.242,3.242,0,0,1,5.143,2.211c.718,5.785-.226,9.792-1.9,12.569a3.241,3.241,0,0,1,1.9,2.563c.718,5.785-.226,9.793-1.9,12.568a3.241,3.241,0,0,1,1.9,2.564q.116.927.175,1.812a27.4,27.4,0,0,0,.659-30.308,3.243,3.243,0,0,1,5.214-3.832,37.118,37.118,0,0,1-28.358,61.071Z" transform="translate(-60.073)" fill="#fff" fill-rule="evenodd"/>
    <path id="Caminho_295" data-name="Caminho 295" d="M469.152,349.466a33.878,33.878,0,1,1-51.761,0,30.641,30.641,0,0,0,8.633,41.721c-2.059-2.888-2.357-6.94-1.844-11.089a29.106,29.106,0,0,0,8.6,4.3c6.6,2.064,8.788,6.333,9.011,12.067.492.023.985.036,1.482.036s.992-.012,1.482-.036c.224-5.733,2.411-10,9.011-12.067a29.112,29.112,0,0,0,8.6-4.3c.513,4.149.215,8.2-1.844,11.09a30.646,30.646,0,0,0,8.634-41.723m-13.01-11.747.456,1.485,1.485.456-1.485.457-.456,1.486-.457-1.486-1.485-.457,1.485-.456Zm-3.3,1.915-.868,2.826-2.826.868,2.826.868.868,2.825.868-2.825,2.825-.868-2.825-.868Zm-7.9,46.465q2.161-4.56,9.588-6.285c7.382-1.705,8.668-8.152,7.839-14.845a29.11,29.11,0,0,1-8.6,4.3C445.446,371.87,444.134,377.975,444.935,386.1Zm0-15.132q2.161-4.558,9.588-6.285c7.382-1.706,8.668-8.152,7.839-14.846a29.091,29.091,0,0,1-8.6,4.3C445.446,356.738,444.134,362.843,444.935,370.967ZM441.608,386.1c.8-8.124-.512-14.229-8.83-16.83a29.1,29.1,0,0,1-8.6-4.3c-.829,6.693.457,13.14,7.84,14.845Q439.445,381.539,441.608,386.1Zm0-15.132c.8-8.124-.512-14.228-8.83-16.829a29.085,29.085,0,0,1-8.6-4.3c-.829,6.694.457,13.14,7.84,14.846Q439.445,366.409,441.608,370.967Zm1.663-11.478a15.091,15.091,0,0,0,0-21.393,15.1,15.1,0,0,0,0,21.393Z" transform="translate(-60.829 -0.757)" fill="#c39a5f" fill-rule="evenodd"/>
  </g>
</svg>
