<svg xmlns="http://www.w3.org/2000/svg" width="80.862" height="89.847" viewBox="0 0 80.862 89.847">
  <g id="building" transform="translate(-5 -2)">
    <path id="Caminho_169" data-name="Caminho 169" d="M43,43.487A7.487,7.487,0,1,0,50.487,36,7.487,7.487,0,0,0,43,43.487Zm11.98,0a4.492,4.492,0,1,1-4.492-4.492A4.492,4.492,0,0,1,54.98,43.487Z" transform="translate(18.903 16.913)" fill="#ffbc00"/>
    <path id="Caminho_170" data-name="Caminho 170" d="M74.6,81.829C79.154,75.959,85.862,66.3,85.862,60.4A16.5,16.5,0,0,0,72.385,44.213V10.985H75.38a1.5,1.5,0,0,0,1.5-1.5V3.5A1.5,1.5,0,0,0,75.38,2H6.5A1.5,1.5,0,0,0,5,3.5v5.99a1.5,1.5,0,0,0,1.5,1.5H9.492v59.9H6.5A1.5,1.5,0,0,0,5,72.38v4.492a1.5,1.5,0,0,0,1.5,1.5H61.589c.9,1.243,1.782,2.411,2.591,3.459-3.609.689-6.768,2.186-6.768,4.777,0,3.594,6.214,5.241,11.98,5.241S81.37,90.2,81.37,86.606C81.37,84.016,78.211,82.518,74.6,81.829ZM7.995,7.99V4.995H73.883V7.99ZM64.9,31.949H55.913a1.5,1.5,0,0,0-1.5,1.5V43.929h-1.5v2.995h7.038A16.436,16.436,0,0,0,52.919,60.4c0,2.89,1.617,6.679,3.789,10.482H49.924V63.4a8.985,8.985,0,0,0-17.969,0v7.487H12.487v-59.9h56.9V43.929a16.507,16.507,0,0,0-2.995.285V33.447A1.5,1.5,0,0,0,64.9,31.949Zm-1.5,2.995v8.985h-5.99V34.944ZM46.929,63.4v7.487H34.949V63.4a5.99,5.99,0,0,1,11.98,0ZM7.995,75.375v-1.5H58.519c.329.509.659,1,.988,1.5ZM55.913,60.4a13.477,13.477,0,1,1,26.954,0c0,5.8-8.88,17.625-13.477,23.151C64.793,78.026,55.913,66.2,55.913,60.4ZM69.39,88.852c-5.75,0-8.805-1.647-8.985-2.216.135-.464,2.052-1.647,5.93-2.081,1.063,1.3,1.8,2.141,1.932,2.291a1.5,1.5,0,0,0,2.246,0c.135-.15.869-.988,1.932-2.291,3.878.434,5.8,1.617,5.93,2.022C78.2,87.205,75.141,88.852,69.39,88.852Z" fill="#ffbc00"/>
    <path id="Caminho_171" data-name="Caminho 171" d="M50.477,21.98V11.5a1.5,1.5,0,0,0-1.5-1.5H39.995a1.5,1.5,0,0,0-1.5,1.5V21.98H37v2.995H51.975V21.98Zm-2.995,0h-5.99V12.995h5.99Z" transform="translate(15.919 3.98)" fill="#ffbc00"/>
    <path id="Caminho_172" data-name="Caminho 172" d="M37.477,21.98V11.5a1.5,1.5,0,0,0-1.5-1.5H26.995a1.5,1.5,0,0,0-1.5,1.5V21.98H24v2.995H38.975V21.98Zm-2.995,0h-5.99V12.995h5.99Z" transform="translate(9.452 3.98)" fill="#ffbc00"/>
    <path id="Caminho_173" data-name="Caminho 173" d="M24.477,21.98V11.5a1.5,1.5,0,0,0-1.5-1.5H13.995a1.5,1.5,0,0,0-1.5,1.5V21.98H11v2.995H25.975V21.98Zm-2.995,0h-5.99V12.995h5.99Z" transform="translate(2.985 3.98)" fill="#ffbc00"/>
    <path id="Caminho_174" data-name="Caminho 174" d="M24.477,33.98V23.5a1.5,1.5,0,0,0-1.5-1.5H13.995a1.5,1.5,0,0,0-1.5,1.5V33.98H11v2.995H25.975V33.98Zm-2.995,0h-5.99V24.995h5.99Z" transform="translate(2.985 9.949)" fill="#ffbc00"/>
    <path id="Caminho_175" data-name="Caminho 175" d="M37.477,33.98V23.5a1.5,1.5,0,0,0-1.5-1.5H26.995a1.5,1.5,0,0,0-1.5,1.5V33.98H24v2.995H38.975V33.98Zm-2.995,0h-5.99V24.995h5.99Z" transform="translate(9.452 9.949)" fill="#ffbc00"/>
  </g>
</svg>
