<svg id="enterprise" xmlns="http://www.w3.org/2000/svg" width="89.847" height="89.847" viewBox="0 0 89.847 89.847">
  <g id="Grupo_11" data-name="Grupo 11" transform="translate(31.993 30.885)">
    <g id="Grupo_10" data-name="Grupo 10" transform="translate(0 0)">
      <rect id="Retângulo_18" data-name="Retângulo 18" width="2" height="2" transform="translate(0.129 0.013)" fill="#ffbd00"/>
    </g>
  </g>
  <g id="Grupo_13" data-name="Grupo 13" transform="translate(31.993 34.462)">
    <g id="Grupo_12" data-name="Grupo 12" transform="translate(0 0)">
      <rect id="Retângulo_19" data-name="Retângulo 19" width="2" height="6" transform="translate(0.129 0.435)" fill="#ffbd00"/>
    </g>
  </g>
  <g id="Grupo_15" data-name="Grupo 15" transform="translate(31.993 41.618)">
    <g id="Grupo_14" data-name="Grupo 14" transform="translate(0 0)">
      <rect id="Retângulo_20" data-name="Retângulo 20" width="2" height="3" transform="translate(0.129 0.28)" fill="#ffbd00"/>
    </g>
  </g>
  <g id="Grupo_17" data-name="Grupo 17" transform="translate(31.993 48.773)">
    <g id="Grupo_16" data-name="Grupo 16" transform="translate(0 0)">
      <rect id="Retângulo_21" data-name="Retângulo 21" width="2" height="2" transform="translate(0.129 0.124)" fill="#ffbd00"/>
    </g>
  </g>
  <g id="Grupo_19" data-name="Grupo 19" transform="translate(36.763 30.885)">
    <g id="Grupo_18" data-name="Grupo 18" transform="translate(0 0)">
      <rect id="Retângulo_22" data-name="Retângulo 22" width="3" height="2" transform="translate(0.359 0.013)" fill="#ffbd00"/>
    </g>
  </g>
  <g id="Grupo_21" data-name="Grupo 21" transform="translate(36.763 34.462)">
    <g id="Grupo_20" data-name="Grupo 20" transform="translate(0 0)">
      <rect id="Retângulo_23" data-name="Retângulo 23" width="3" height="6" transform="translate(0.359 0.435)" fill="#ffbd00"/>
    </g>
  </g>
  <g id="Grupo_23" data-name="Grupo 23" transform="translate(36.763 41.618)">
    <g id="Grupo_22" data-name="Grupo 22" transform="translate(0 0)">
      <rect id="Retângulo_24" data-name="Retângulo 24" width="3" height="3" transform="translate(0.359 0.28)" fill="#ffbd00"/>
    </g>
  </g>
  <g id="Grupo_25" data-name="Grupo 25" transform="translate(36.763 48.773)">
    <g id="Grupo_24" data-name="Grupo 24" transform="translate(0 0)">
      <rect id="Retângulo_25" data-name="Retângulo 25" width="3" height="2" transform="translate(0.359 0.124)" fill="#ffbd00"/>
    </g>
  </g>
  <g id="Grupo_27" data-name="Grupo 27" transform="translate(43.919 30.885)">
    <g id="Grupo_26" data-name="Grupo 26" transform="translate(0 0)">
      <rect id="Retângulo_26" data-name="Retângulo 26" width="2" height="2" transform="translate(0.204 0.013)" fill="#ffbd00"/>
    </g>
  </g>
  <g id="Grupo_29" data-name="Grupo 29" transform="translate(43.919 34.462)">
    <g id="Grupo_28" data-name="Grupo 28" transform="translate(0 0)">
      <rect id="Retângulo_27" data-name="Retângulo 27" width="2" height="6" transform="translate(0.204 0.435)" fill="#ffbd00"/>
    </g>
  </g>
  <g id="Grupo_31" data-name="Grupo 31" transform="translate(43.919 41.618)">
    <g id="Grupo_30" data-name="Grupo 30" transform="translate(0 0)">
      <rect id="Retângulo_28" data-name="Retângulo 28" width="2" height="3" transform="translate(0.204 0.28)" fill="#ffbd00"/>
    </g>
  </g>
  <g id="Grupo_33" data-name="Grupo 33" transform="translate(43.919 48.773)">
    <g id="Grupo_32" data-name="Grupo 32" transform="translate(0 0)">
      <rect id="Retângulo_29" data-name="Retângulo 29" width="2" height="2" transform="translate(0.204 0.124)" fill="#ffbd00"/>
    </g>
  </g>
  <g id="Grupo_35" data-name="Grupo 35" transform="translate(48.689 30.885)">
    <g id="Grupo_34" data-name="Grupo 34" transform="translate(0 0)">
      <rect id="Retângulo_30" data-name="Retângulo 30" width="3" height="2" transform="translate(0.433 0.013)" fill="#ffbd00"/>
    </g>
  </g>
  <g id="Grupo_37" data-name="Grupo 37" transform="translate(36.763 23.729)">
    <g id="Grupo_36" data-name="Grupo 36" transform="translate(0 0)">
      <rect id="Retângulo_31" data-name="Retângulo 31" width="3" height="5" transform="translate(0.359 0.168)" fill="#ffbd00"/>
    </g>
  </g>
  <g id="Grupo_39" data-name="Grupo 39" transform="translate(43.919 23.729)">
    <g id="Grupo_38" data-name="Grupo 38" transform="translate(0 0)">
      <rect id="Retângulo_32" data-name="Retângulo 32" width="2" height="5" transform="translate(0.204 0.168)" fill="#ffbd00"/>
    </g>
  </g>
  <g id="Grupo_41" data-name="Grupo 41" transform="translate(48.689 23.729)">
    <g id="Grupo_40" data-name="Grupo 40" transform="translate(0 0)">
      <rect id="Retângulo_33" data-name="Retângulo 33" width="3" height="5" transform="translate(0.433 0.168)" fill="#ffbd00"/>
    </g>
  </g>
  <g id="Grupo_43" data-name="Grupo 43" transform="translate(48.689 34.462)">
    <g id="Grupo_42" data-name="Grupo 42" transform="translate(0 0)">
      <rect id="Retângulo_34" data-name="Retângulo 34" width="3" height="6" transform="translate(0.433 0.435)" fill="#ffbd00"/>
    </g>
  </g>
  <g id="Grupo_45" data-name="Grupo 45" transform="translate(48.689 41.618)">
    <g id="Grupo_44" data-name="Grupo 44" transform="translate(0 0)">
      <rect id="Retângulo_35" data-name="Retângulo 35" width="3" height="3" transform="translate(0.433 0.28)" fill="#ffbd00"/>
    </g>
  </g>
  <g id="Grupo_47" data-name="Grupo 47" transform="translate(48.689 48.773)">
    <g id="Grupo_46" data-name="Grupo 46" transform="translate(0 0)">
      <rect id="Retângulo_36" data-name="Retângulo 36" width="3" height="2" transform="translate(0.433 0.124)" fill="#ffbd00"/>
    </g>
  </g>
  <g id="Grupo_49" data-name="Grupo 49" transform="translate(57.037 30.885)">
    <g id="Grupo_48" data-name="Grupo 48" transform="translate(0 0)">
      <rect id="Retângulo_37" data-name="Retângulo 37" width="1" height="2" transform="translate(0.085 0.013)" fill="#ffbd00"/>
    </g>
  </g>
  <g id="Grupo_51" data-name="Grupo 51" transform="translate(57.037 34.462)">
    <g id="Grupo_50" data-name="Grupo 50" transform="translate(0 0)">
      <rect id="Retângulo_38" data-name="Retângulo 38" width="1" height="6" transform="translate(0.085 0.435)" fill="#ffbd00"/>
    </g>
  </g>
  <g id="Grupo_53" data-name="Grupo 53" transform="translate(57.037 41.618)">
    <g id="Grupo_52" data-name="Grupo 52" transform="translate(0 0)">
      <rect id="Retângulo_39" data-name="Retângulo 39" width="1" height="3" transform="translate(0.085 0.28)" fill="#ffbd00"/>
    </g>
  </g>
  <g id="Grupo_55" data-name="Grupo 55" transform="translate(57.037 48.773)">
    <g id="Grupo_54" data-name="Grupo 54" transform="translate(0 0)">
      <rect id="Retângulo_40" data-name="Retângulo 40" width="1" height="2" transform="translate(0.085 0.124)" fill="#ffbd00"/>
    </g>
  </g>
  <g id="Grupo_57" data-name="Grupo 57" transform="translate(0 0)">
    <g id="Grupo_56" data-name="Grupo 56">
      <path id="Caminho_38" data-name="Caminho 38" d="M88.351,22.462H65.888V1.5a1.5,1.5,0,0,0-1.5-1.5H25.457a1.5,1.5,0,0,0-1.5,1.5V22.462H1.5a1.5,1.5,0,0,0-1.5,1.5v53.91a1.5,1.5,0,0,0,1.5,1.5H4.628a8.986,8.986,0,0,0-.135,1.5V88.35a1.5,1.5,0,0,0,1.5,1.5H83.857a1.5,1.5,0,0,0,1.5-1.5V80.862a8.947,8.947,0,0,0-.135-1.5h3.13a1.5,1.5,0,0,0,1.5-1.5V23.959A1.5,1.5,0,0,0,88.351,22.462ZM64.39,64.39A2.995,2.995,0,1,1,61.4,61.4,2.995,2.995,0,0,1,64.39,64.39ZM28.452,61.4a2.995,2.995,0,1,1-2.995,2.995A2.995,2.995,0,0,1,28.452,61.4ZM19.467,86.852H7.487v-5.99a5.99,5.99,0,0,1,11.98,0ZM10.482,68.883a2.995,2.995,0,1,1,2.995,2.995A2.995,2.995,0,0,1,10.482,68.883Zm9.212,5.508A9.027,9.027,0,0,0,17.81,73a5.99,5.99,0,1,0-8.666,0A9.043,9.043,0,0,0,5.708,76.37H2.995V25.457H23.959V60.47a5.908,5.908,0,0,0,.159,8.034A9.01,9.01,0,0,0,19.694,74.391ZM34.441,86.852H22.462V76.37a5.99,5.99,0,0,1,11.98,0Zm17.969,0H37.436V76.37a7.487,7.487,0,0,1,14.975,0ZM40.431,61.4a4.492,4.492,0,1,1,4.492,4.492A4.492,4.492,0,0,1,40.431,61.4Zm13.612,9.826a10.548,10.548,0,0,0-4.3-4.148,7.488,7.488,0,1,0-9.647,0,10.548,10.548,0,0,0-4.3,4.148A9.044,9.044,0,0,0,32.784,68.5a5.947,5.947,0,0,0-5.83-9.891V2.995H62.893V58.613a5.963,5.963,0,0,0-5.83,9.891A9.044,9.044,0,0,0,54.043,71.222Zm13.342,9.641v5.99H55.406V76.37a5.99,5.99,0,0,1,11.98,0Zm14.975,5.99H70.38v-5.99a5.99,5.99,0,1,1,11.98,0ZM73.375,68.883a2.995,2.995,0,1,1,2.995,2.995A2.995,2.995,0,0,1,73.375,68.883ZM86.852,76.37H84.139A9.043,9.043,0,0,0,80.7,73a5.99,5.99,0,1,0-8.666,0,9.021,9.021,0,0,0-1.884,1.394A9.01,9.01,0,0,0,65.728,68.5a5.908,5.908,0,0,0,.16-8.034V25.457H86.852V76.37Z" transform="translate(0 0)" fill="#ffbd00"/>
    </g>
  </g>
  <g id="Grupo_59" data-name="Grupo 59" transform="translate(70.155 33.27)">
    <g id="Grupo_58" data-name="Grupo 58" transform="translate(0 0)">
      <rect id="Retângulo_41" data-name="Retângulo 41" width="2" height="24" transform="translate(-0.033 -0.372)" fill="#ffbd00"/>
    </g>
  </g>
  <g id="Grupo_61" data-name="Grupo 61" transform="translate(77.311 33.27)">
    <g id="Grupo_60" data-name="Grupo 60" transform="translate(0 0)">
      <rect id="Retângulo_42" data-name="Retângulo 42" width="5" height="24" transform="translate(-0.188 -0.372)" fill="#ffbd00"/>
    </g>
  </g>
  <g id="Grupo_63" data-name="Grupo 63" transform="translate(8.142 33.27)">
    <g id="Grupo_62" data-name="Grupo 62" transform="translate(0 0)">
      <rect id="Retângulo_43" data-name="Retângulo 43" width="4" height="24" transform="translate(-0.019 -0.372)" fill="#ffbd00"/>
    </g>
  </g>
  <g id="Grupo_65" data-name="Grupo 65" transform="translate(15.297 33.27)">
    <g id="Grupo_64" data-name="Grupo 64" transform="translate(0 0)">
      <rect id="Retângulo_44" data-name="Retângulo 44" width="4" height="24" transform="translate(-0.175 -0.372)" fill="#ffbd00"/>
    </g>
  </g>
  <g id="Grupo_67" data-name="Grupo 67" transform="translate(34.441 5.99)">
    <g id="Grupo_66" data-name="Grupo 66">
      <path id="Caminho_39" data-name="Caminho 39" d="M203.469,32H185.5a1.5,1.5,0,0,0-1.5,1.5V45.477a1.5,1.5,0,0,0,1.5,1.5h17.971a1.5,1.5,0,0,0,1.5-1.5V33.5A1.5,1.5,0,0,0,203.469,32Zm-1.5,11.98H186.995V34.995h14.975Z" transform="translate(-184 -32)" fill="#ffbd00"/>
    </g>
  </g>
</svg>
