<svg xmlns="http://www.w3.org/2000/svg" width="94.042" height="89.847" viewBox="0 0 94.042 89.847">
  <g id="flour" transform="translate(0 -10.25)">
    <path id="Caminho_40" data-name="Caminho 40" d="M84.322,21.716H79.706L55.141,11.89a22.722,22.722,0,0,0-16.949,0L13.626,21.716H9.721A9.721,9.721,0,0,0,.034,32.244L.5,37.834a6.442,6.442,0,0,0,6.832,5.9L4.8,88.091A11.359,11.359,0,0,0,16.136,100.1H77.2a11.358,11.358,0,0,0,11.34-12.006L85.949,42.84l.083.021a6.446,6.446,0,0,0,8.01-6.254v-5.17A9.732,9.732,0,0,0,84.322,21.716ZM39.332,14.74A19.667,19.667,0,0,1,54,14.74l17.44,6.976H21.892ZM85.471,88.266A8.288,8.288,0,0,1,77.2,97.028H16.136a8.288,8.288,0,0,1-8.275-8.761L10.431,43.31l13.523-1.932a11.559,11.559,0,0,1,2.912-.045L52.2,44.147a14.583,14.583,0,0,0,5.466-.426l12.3-3.354a11.589,11.589,0,0,1,5.847-.062l7.02,1.755Zm5.5-51.66a3.377,3.377,0,0,1-4.2,3.276h0L76.554,37.327a14.662,14.662,0,0,0-7.4.079l-12.3,3.354a11.522,11.522,0,0,1-4.319.337L27.2,38.281a14.643,14.643,0,0,0-3.685.058L7.4,40.641a3.376,3.376,0,0,1-3.843-3.062l-.121-1.456,15.758-2.251a57.483,57.483,0,0,1,12.521-.408L46.548,34.6a1.535,1.535,0,0,0,.235-3.061L31.951,30.4a60.549,60.549,0,0,0-13.191.43L3.182,33.058,3.093,31.99a6.651,6.651,0,0,1,6.628-7.2h74.6a6.659,6.659,0,0,1,6.651,6.651Z" transform="translate(0)" fill="#ffbc00"/>
    <path id="Caminho_41" data-name="Caminho 41" d="M402.021,108.074l-3.274-1.637a1.535,1.535,0,1,0-1.373,2.746l3.274,1.637a1.535,1.535,0,1,0,1.373-2.746Z" transform="translate(-315.376 -76.373)" fill="#ffbc00"/>
    <path id="Caminho_42" data-name="Caminho 42" d="M321.52,98.276h-.074a40.86,40.86,0,0,0-9.9,1.219l-1.856.464a1.535,1.535,0,1,0,.745,2.978l1.856-.464a37.8,37.8,0,0,1,9.158-1.127h.074a1.535,1.535,0,1,0,0-3.07Z" transform="translate(-245.384 -70.011)" fill="#ffbc00"/>
    <path id="Caminho_43" data-name="Caminho 43" d="M374.506,191.4a1.535,1.535,0,0,0,1.531,1.447l.089,0a1.535,1.535,0,0,0,1.445-1.62l-.184-3.216a1.535,1.535,0,0,0-3.065.175Z" transform="translate(-297.715 -140.227)" fill="#ffbc00"/>
    <path id="Caminho_44" data-name="Caminho 44" d="M378.494,234.281a1.535,1.535,0,0,0-1.445,1.62l1.216,21.282a1.535,1.535,0,0,0,1.531,1.447l.089,0a1.535,1.535,0,0,0,1.445-1.62l-1.216-21.282A1.537,1.537,0,0,0,378.494,234.281Z" transform="translate(-299.883 -178.18)" fill="#ffbc00"/>
    <path id="Caminho_45" data-name="Caminho 45" d="M266.062,241.439a1.529,1.529,0,0,0,1.085-.45l4.093-4.093a1.535,1.535,0,0,0-2.171-2.171l-4.093,4.093a1.535,1.535,0,0,0,1.085,2.62Z" transform="translate(-210.391 -178.179)" fill="#ffbc00"/>
    <path id="Caminho_46" data-name="Caminho 46" d="M173.975,274.726a1.535,1.535,0,0,0-2.171,0l-18.828,18.828a1.535,1.535,0,1,0,2.171,2.171L173.975,276.9A1.535,1.535,0,0,0,173.975,274.726Z" transform="translate(-121.312 -209.993)" fill="#ffbc00"/>
    <path id="Caminho_47" data-name="Caminho 47" d="M190.062,282.257a1.535,1.535,0,0,0,1.535-1.535v-4.912a1.535,1.535,0,0,0-3.07,0v4.912A1.535,1.535,0,0,0,190.062,282.257Z" transform="translate(-149.945 -209.992)" fill="#ffbc00"/>
    <path id="Caminho_48" data-name="Caminho 48" d="M226.974,330.276h-4.912a1.535,1.535,0,0,0,0,3.07h4.912a1.535,1.535,0,0,0,0-3.07Z" transform="translate(-175.396 -254.532)" fill="#ffbc00"/>
    <path id="Caminho_49" data-name="Caminho 49" d="M166.062,306.257a1.535,1.535,0,0,0,1.535-1.535v-4.912a1.535,1.535,0,0,0-3.07,0v4.912A1.535,1.535,0,0,0,166.062,306.257Z" transform="translate(-130.856 -229.081)" fill="#ffbc00"/>
    <path id="Caminho_50" data-name="Caminho 50" d="M202.973,354.276h-4.912a1.535,1.535,0,1,0,0,3.07h4.912a1.535,1.535,0,1,0,0-3.07Z" transform="translate(-156.307 -273.62)" fill="#ffbc00"/>
    <path id="Caminho_51" data-name="Caminho 51" d="M214.062,258.257a1.535,1.535,0,0,0,1.535-1.535v-4.912a1.535,1.535,0,1,0-3.07,0v4.912A1.535,1.535,0,0,0,214.062,258.257Z" transform="translate(-169.033 -190.904)" fill="#ffbc00"/>
    <path id="Caminho_52" data-name="Caminho 52" d="M250.974,306.276h-4.912a1.535,1.535,0,0,0,0,3.07h4.912a1.535,1.535,0,1,0,0-3.07Z" transform="translate(-194.484 -235.444)" fill="#ffbc00"/>
    <path id="Caminho_53" data-name="Caminho 53" d="M238.062,234.257a1.535,1.535,0,0,0,1.535-1.535v-4.912a1.535,1.535,0,1,0-3.07,0v4.912A1.535,1.535,0,0,0,238.062,234.257Z" transform="translate(-188.121 -171.816)" fill="#ffbc00"/>
    <path id="Caminho_54" data-name="Caminho 54" d="M274.974,282.276h-4.912a1.535,1.535,0,0,0,0,3.07h4.912a1.535,1.535,0,0,0,0-3.07Z" transform="translate(-213.573 -216.355)" fill="#ffbc00"/>
  </g>
</svg>
