<svg id="group" xmlns="http://www.w3.org/2000/svg" width="89.847" height="89.847" viewBox="0 0 89.847 89.847">
  <path id="Caminho_176" data-name="Caminho 176" d="M89.847,46.373V34.745a7.2,7.2,0,0,0-5.163-6.94l-9.328-2.8V22.8A10.133,10.133,0,0,0,79.7,14.493V10.144a10.144,10.144,0,1,0-20.288,0v4.347A10.129,10.129,0,0,0,63.762,22.8V25l-8.221,2.467a16.747,16.747,0,0,0-22.087-.253l-7.37-2.212V22.8a10.133,10.133,0,0,0,4.347-8.312V10.144a10.144,10.144,0,1,0-20.288,0v4.347A10.129,10.129,0,0,0,14.491,22.8V25L5.163,27.8A7.2,7.2,0,0,0,0,34.745V46.373H2.9V34.745A4.318,4.318,0,0,1,6,30.581l9.331-2.8a6.3,6.3,0,0,0,4.96,2.651,6.3,6.3,0,0,0,4.96-2.651l5.943,1.782a16.727,16.727,0,0,0-3.525,8.42,10.13,10.13,0,0,0-17.523,6.94v4.347a10.129,10.129,0,0,0,4.347,8.312v2.2l-9.328,2.8A7.2,7.2,0,0,0,0,69.524V82.6H17.39a1.452,1.452,0,0,1,1.449,1.449v5.8H71.008v-5.8A1.452,1.452,0,0,1,72.457,82.6h17.39V69.524a7.2,7.2,0,0,0-5.163-6.94l-9.328-2.8v-2.2A10.133,10.133,0,0,0,79.7,49.272V44.925a10.135,10.135,0,0,0-17.39-7.087V36.465a7.793,7.793,0,0,0-3.982-6.8L64.6,27.783a5.967,5.967,0,0,0,9.92,0l9.332,2.8a4.319,4.319,0,0,1,3.1,4.163V46.373ZM20.288,2.9a7.254,7.254,0,0,1,7.246,7.246H20.888a3.522,3.522,0,0,1-2.474-1.025L17.39,8.095,16.365,9.119a3.522,3.522,0,0,1-2.474,1.025h-.849A7.254,7.254,0,0,1,20.288,2.9ZM13.042,14.491V13.042h.849A6.346,6.346,0,0,0,17.39,12a6.346,6.346,0,0,0,3.5,1.039h6.646v1.449a7.246,7.246,0,0,1-14.491,0Zm7.246,13.042a3.708,3.708,0,0,1-2.9-1.848V24.21a10.057,10.057,0,0,0,5.8,0v1.477A3.7,3.7,0,0,1,20.288,27.534ZM60.122,52.969a10.188,10.188,0,0,0,3.641,4.616v2.2l-9.327,2.8a7.116,7.116,0,0,0-.9.342l-1.369-.316V59.755A11.654,11.654,0,0,0,55.688,55,7.217,7.217,0,0,0,60.122,52.969Zm-15.2,9.344a11.514,11.514,0,0,0,4.347-.853v1.578L44.924,66.3l-4.347-3.261V61.46A11.514,11.514,0,0,0,44.924,62.313ZM38.8,65.326l3.533,2.651L38.7,70.158l-.919-4.6ZM43.322,76.8h3.2l1.127,10.144H42.2Zm3.454-2.9H43.069l-.832-2.5L44.924,69.8l2.685,1.611Zm.741-5.93,3.533-2.651,1.02.235-.919,4.6ZM58.285,50.746a4.346,4.346,0,0,1-1.831,1.171,11.752,11.752,0,0,0,.062-1.2V43.786a4.376,4.376,0,0,1,2.876,3.6A4.323,4.323,0,0,1,58.285,50.746Zm-4.667-.026a8.695,8.695,0,0,1-17.39,0V43.474h4.92a18.637,18.637,0,0,0,8.979-2.294l1.146,2.294h2.345Zm-20.226,1.2a4.285,4.285,0,0,1-.062-8.13V50.72A11.752,11.752,0,0,0,33.393,51.917ZM34.159,55a11.629,11.629,0,0,0,3.519,4.753v2.855l-1.369.316a7.5,7.5,0,0,0-.9-.342l-9.328-2.8v-2.2a10.2,10.2,0,0,0,3.641-4.616A7.217,7.217,0,0,0,34.159,55ZM20.288,37.678a7.254,7.254,0,0,1,7.246,7.246h-.849A3.522,3.522,0,0,1,24.211,43.9l-1.025-1.025L22.162,43.9a3.522,3.522,0,0,1-2.474,1.025H13.042A7.254,7.254,0,0,1,20.288,37.678ZM13.042,49.271V47.822h6.646a6.346,6.346,0,0,0,3.5-1.039,6.346,6.346,0,0,0,3.5,1.039h.849v1.449a7.246,7.246,0,0,1-14.491,0Zm7.246,10.144a10.083,10.083,0,0,0,2.9-.427v1.477a3.7,3.7,0,0,1-2.9,1.849,3.708,3.708,0,0,1-2.9-1.848V58.989A10.131,10.131,0,0,0,20.288,59.415ZM17.39,79.7h-5.8V69.559h-2.9V79.7H2.9V69.524A4.318,4.318,0,0,1,6,65.361l9.331-2.8a6.3,6.3,0,0,0,4.96,2.651,6.3,6.3,0,0,0,4.96-2.651l5.5,1.649-4.042.932a10.1,10.1,0,0,0-7.863,9.884V76.8h2.9V75.027a7.215,7.215,0,0,1,5.617-7.06l7.6-1.753,1.708,8.544,3.032-1.819.858,2.574L39.279,86.949h-7.4V75.356h-2.9V86.949H21.737v-2.9A4.353,4.353,0,0,0,17.39,79.7ZM83.85,65.361a4.318,4.318,0,0,1,3.1,4.163V79.7h-5.8V69.559h-2.9V79.7h-5.8a4.353,4.353,0,0,0-4.347,4.347v2.9H60.864V75.356h-2.9V86.949h-7.4L49.3,75.512l.858-2.574,3.032,1.819,1.708-8.544,7.6,1.753a7.215,7.215,0,0,1,5.617,7.06V76.8h2.9V75.027a10.1,10.1,0,0,0-7.863-9.884L59.1,64.21l5.5-1.649a5.966,5.966,0,0,0,9.92,0Zm-11.393-4.9a3.2,3.2,0,0,1-5.8,0V58.988a10.041,10.041,0,0,0,5.8,0Zm-2.9-3.949a7.254,7.254,0,0,1-7.246-7.246V47.822h.849a6.346,6.346,0,0,0,3.5-1.039,6.346,6.346,0,0,0,3.5,1.039H76.8v1.449A7.254,7.254,0,0,1,69.559,56.517Zm0-18.839A7.254,7.254,0,0,1,76.8,44.924H70.159A3.522,3.522,0,0,1,67.685,43.9l-1.025-1.025L65.636,43.9a3.523,3.523,0,0,1-2.474,1.025h-.849A7.254,7.254,0,0,1,69.559,37.678ZM59.415,42.148a7.613,7.613,0,0,0-4.6-1.572H53.065l-1.782-3.565-1.366.91a15.755,15.755,0,0,1-8.768,2.655h-6.12a7.613,7.613,0,0,0-4.6,1.572V40.005A13.922,13.922,0,0,1,54.2,30.161L55.734,31.7l.325.109a4.9,4.9,0,0,1,3.356,4.656ZM69.559,2.9A7.254,7.254,0,0,1,76.8,10.144h-.849a3.522,3.522,0,0,1-2.474-1.025L72.457,8.095,71.433,9.119a3.522,3.522,0,0,1-2.474,1.025H62.313A7.254,7.254,0,0,1,69.559,2.9ZM62.313,14.491V13.042h6.646A6.346,6.346,0,0,0,72.457,12a6.346,6.346,0,0,0,3.5,1.039H76.8v1.449a7.246,7.246,0,0,1-14.491,0Zm7.246,13.042a3.706,3.706,0,0,1-2.9-1.848V24.208a10.041,10.041,0,0,0,5.8,0v1.477A3.7,3.7,0,0,1,69.559,27.534Zm0,0" fill="#ffbc00"/>
  <path id="Caminho_177" data-name="Caminho 177" d="M184,0h2.9V2.9H184Zm0,0" transform="translate(-150.67)" fill="#ffbc00"/>
  <path id="Caminho_178" data-name="Caminho 178" d="M184,32h2.9V47.941H184Zm0,0" transform="translate(-150.67 -26.203)" fill="#ffbc00"/>
  <path id="Caminho_179" data-name="Caminho 179" d="M296,0h2.9V2.9H296Zm0,0" transform="translate(-242.382)" fill="#ffbc00"/>
  <path id="Caminho_180" data-name="Caminho 180" d="M296,32h2.9V47.941H296Zm0,0" transform="translate(-242.382 -26.203)" fill="#ffbc00"/>
  <path id="Caminho_181" data-name="Caminho 181" d="M216,32h2.9V42.144H216Zm0,0" transform="translate(-176.873 -26.203)" fill="#ffbc00"/>
  <path id="Caminho_182" data-name="Caminho 182" d="M216,104h2.9v2.9H216Zm0,0" transform="translate(-176.873 -85.161)" fill="#ffbc00"/>
  <path id="Caminho_183" data-name="Caminho 183" d="M264,32h2.9V42.144H264Zm0,0" transform="translate(-216.178 -26.203)" fill="#ffbc00"/>
  <path id="Caminho_184" data-name="Caminho 184" d="M264,104h2.9v2.9H264Zm0,0" transform="translate(-216.178 -85.161)" fill="#ffbc00"/>
</svg>
